<svg xmlns="http://www.w3.org/2000/svg" width="112" height="111" viewBox="0 0 112 111" fill="none"><mask id="mask0_1649_5500" style="mask-type:alpha" maskUnits="userSpaceOnUse" x="0" y="-1" width="112" height="112"><rect x="0.0664062" y="-0.000976562" width="111" height="111" fill="url(#paint0_linear_1649_5500)"></rect></mask><g mask="url(#mask0_1649_5500)"><path d="M17.0664 56.1787L56.537 99.183L42.4906 56.1787H17.0664Z" stroke="white" stroke-width="2" stroke-miterlimit="10" stroke-linejoin="round"></path><path d="M17.0664 56.1802L30.9327 34.9756H56.0649L42.4906 56.1802" stroke="white" stroke-width="2" stroke-miterlimit="10" stroke-linejoin="round"></path><path d="M30.9336 34.9756L42.4915 56.1802H56.5379" stroke="white" stroke-width="2" stroke-miterlimit="10" stroke-linejoin="round"></path><path d="M96.0136 56.1787L56.5391 99.183L70.5894 56.1787H96.0136Z" stroke="white" stroke-width="2" stroke-miterlimit="10" stroke-linejoin="round"></path><path d="M96.0141 56.1802L82.1438 34.9756H56.1875L70.5899 56.1802" stroke="white" stroke-width="2" stroke-miterlimit="10" stroke-linejoin="round"></path><path d="M82.1433 34.9756L70.5894 56.1802H56.5391" stroke="white" stroke-width="2" stroke-miterlimit="10" stroke-linejoin="round"></path><path d="M93.1114 38.1694C93.1114 37.3716 92.9551 36.5816 92.6513 35.8445C92.3475 35.1075 91.9022 34.4377 91.3409 33.8736C90.7795 33.3095 90.1131 32.862 89.3797 32.5567C88.6463 32.2514 87.8602 32.0943 87.0664 32.0943C87.8618 32.0937 88.6492 31.9356 89.3837 31.6288C90.1182 31.3221 90.7853 30.8728 91.3468 30.3066C91.9083 29.7405 92.3531 29.0686 92.6559 28.3294C92.9587 27.5903 93.1135 26.7984 93.1114 25.999C93.1114 27.6102 93.7483 29.1555 94.882 30.2948C96.0156 31.4341 97.5532 32.0742 99.1564 32.0742C98.3607 32.0736 97.5728 32.231 96.8378 32.5374C96.1029 32.8438 95.4354 33.2931 94.8737 33.8594C94.312 34.4258 93.8671 35.0981 93.5647 35.8377C93.2623 36.5774 93.1082 37.3697 93.1114 38.1694Z" stroke="url(#paint1_linear_1649_5500)" stroke-width="2" stroke-miterlimit="10" stroke-linejoin="round"></path><path d="M17.8877 40.1966C17.8877 38.1119 17.0637 36.1126 15.5969 34.6385C14.1301 33.1644 12.1407 32.3363 10.0664 32.3363C11.0949 32.3363 12.1132 32.1325 13.0632 31.7364C14.0132 31.3404 14.8761 30.76 15.6026 30.0284C16.3291 29.2968 16.9048 28.4284 17.297 27.4729C17.6891 26.5174 17.8898 25.4935 17.8877 24.46C17.8877 26.5457 18.7122 28.546 20.1797 30.0208C21.6472 31.4957 23.6376 32.3242 25.713 32.3242C24.6846 32.3237 23.6661 32.527 22.7159 32.9226C21.7658 33.3181 20.9025 33.8981 20.1757 34.6293C19.4488 35.3605 18.8726 36.2286 18.48 37.1839C18.0874 38.1393 17.8861 39.163 17.8877 40.1966Z" stroke="url(#paint2_linear_1649_5500)" stroke-width="2" stroke-miterlimit="10" stroke-linejoin="round"></path><path d="M74.0432 26.0063C74.0432 24.6794 73.519 23.4068 72.5858 22.4682C71.6526 21.5296 70.3867 21.0017 69.0664 21.0006C70.3863 21.0006 71.6522 20.4737 72.5855 19.5357C73.5189 18.5977 74.0432 17.3255 74.0432 15.999C74.0432 16.6562 74.1721 17.3069 74.4225 17.914C74.6728 18.5211 75.0398 19.0726 75.5023 19.5371C75.9649 20.0016 76.514 20.3699 77.1183 20.6211C77.7226 20.8722 78.3702 21.0012 79.0241 21.0006C77.7031 21.0006 76.4362 21.528 75.5021 22.4668C74.568 23.4055 74.0432 24.6787 74.0432 26.0063Z" stroke="url(#paint3_linear_1649_5500)" stroke-width="2" stroke-miterlimit="10" stroke-linejoin="round"></path></g><defs><linearGradient id="paint0_linear_1649_5500" x1="55.934" y1="11.9212" x2="55.934" y2="105.655" gradientUnits="userSpaceOnUse"><stop stop-color="white"></stop><stop offset="0.221837" stop-color="#EDEDED"></stop><stop offset="0.466692" stop-opacity="0.5"></stop><stop offset="1" stop-opacity="0"></stop></linearGradient><linearGradient id="paint1_linear_1649_5500" x1="87.0664" y1="25.999" x2="99.5854" y2="26.4916" gradientUnits="userSpaceOnUse"><stop offset="0.00270832" stop-color="#FFC67E"></stop><stop offset="0.956566" stop-color="#FFDFC2"></stop></linearGradient><linearGradient id="paint2_linear_1649_5500" x1="10.0664" y1="24.46" x2="26.2682" y2="25.098" gradientUnits="userSpaceOnUse"><stop offset="0.00270832" stop-color="#FFC67E"></stop><stop offset="0.956566" stop-color="#FFDFC2"></stop></linearGradient><linearGradient id="paint3_linear_1649_5500" x1="69.0664" y1="15.999" x2="79.3773" y2="16.4054" gradientUnits="userSpaceOnUse"><stop offset="0.00270832" stop-color="#FFC67E"></stop><stop offset="0.956566" stop-color="#FFDFC2"></stop></linearGradient></defs></svg>