<svg xmlns="http://www.w3.org/2000/svg" width="48" height="48" viewBox="0 0 48 48" fill="none"><circle cx="24" cy="24" r="24" fill="#DBB484"></circle><path d="M12.5581 27.0662H17.8179V29H9.78897V27.2983L14.925 19.981V19.9655H10.0056V18.0163H17.8024V19.6716L12.5581 27.0353V27.0662ZM24.0434 21.4506H26.0545V29H24.1362V28.0873H24.0898C23.5793 28.7525 22.8058 29.1238 21.8312 29.1238C19.7427 29.1238 18.2266 27.5768 18.2266 25.2408C18.2266 22.9512 19.7582 21.3269 21.7847 21.3269C22.682 21.3269 23.4555 21.6517 23.997 22.3015H24.0434V21.4506ZM22.2024 27.3138C23.2544 27.3138 24.1207 26.4939 24.1207 25.2563C24.1207 24.0496 23.3163 23.1369 22.2179 23.1369C21.135 23.1369 20.2687 23.9568 20.2687 25.2563C20.2687 26.4784 21.0731 27.3138 22.2024 27.3138ZM27.3605 29V17.6141H29.387V29H27.3605ZM34.359 29.1238C31.9611 29.1238 30.3522 27.4839 30.3522 25.2253C30.3522 22.9667 31.9611 21.3269 34.359 21.3269C36.7104 21.3269 38.3812 22.9048 38.3812 25.2253C38.3812 27.5458 36.7104 29.1238 34.359 29.1238ZM34.359 27.3138C35.4573 27.3138 36.3236 26.4474 36.3236 25.2253C36.3236 23.9877 35.4883 23.1369 34.359 23.1369C33.1832 23.1369 32.3943 24.0341 32.3943 25.2253C32.3943 26.401 33.2142 27.3138 34.359 27.3138Z" fill="#452305"></path></svg>