<svg xmlns="http://www.w3.org/2000/svg" width="112" height="111" viewBox="0 0 112 111" fill="none"><mask id="mask0_1663_22729" style="mask-type:alpha" maskUnits="userSpaceOnUse" x="0" y="-1" width="112" height="112"><rect x="0.0664062" y="-0.000976562" width="111" height="111" fill="url(#paint0_linear_1663_22729)"></rect></mask><g mask="url(#mask0_1663_22729)"><path d="M90.0432 55.5316V26.0049C73.5918 24.3666 56.0575 14.999 56.0575 14.999C56.0575 14.999 38.5232 24.365 22.0702 26.0049V55.5316C22.0702 55.5316 20.9697 88.2332 56.0575 95.999C92.1562 87.0045 90.0432 55.5316 90.0432 55.5316Z" stroke="url(#paint1_linear_1663_22729)" stroke-width="2" stroke-miterlimit="10"></path><path d="M56.0664 73.999C67.1121 73.999 76.0664 64.8209 76.0664 53.499C76.0664 42.1772 67.1121 32.999 56.0664 32.999C45.0207 32.999 36.0664 42.1772 36.0664 53.499C36.0664 64.8209 45.0207 73.999 56.0664 73.999Z" stroke="white" stroke-width="2" stroke-miterlimit="10"></path><path d="M53.7148 62.999C53.3532 62.9995 52.995 62.9248 52.6609 62.7791C52.3269 62.6334 52.0235 62.4197 51.7682 62.1502L44.8731 54.8943C44.6174 54.6255 44.4145 54.3063 44.2761 53.9549C44.1377 53.6035 44.0664 53.2269 44.0664 52.8466C44.0664 52.4662 44.1377 52.0896 44.2761 51.7382C44.4145 51.3868 44.6174 51.0676 44.8731 50.7988C45.3894 50.2561 46.0893 49.9513 46.819 49.9513C47.5487 49.9513 48.2486 50.2561 48.7649 50.7988L53.7148 56.0079L63.3694 45.848C63.6248 45.5788 63.9282 45.3653 64.262 45.2197C64.5959 45.074 64.9538 44.999 65.3153 44.999C65.6767 44.999 66.0346 45.074 66.3685 45.2197C66.7024 45.3653 67.0057 45.5788 67.2611 45.848C67.7767 46.391 68.0664 47.1272 68.0664 47.8948C68.0664 48.6625 67.7767 49.3987 67.2611 49.9417L55.6599 62.1502C55.4048 62.4195 55.1016 62.6331 54.7678 62.7788C54.434 62.9244 54.0762 62.9993 53.7148 62.999Z" stroke="url(#paint2_linear_1663_22729)" stroke-width="2" stroke-miterlimit="10"></path></g><defs><linearGradient id="paint0_linear_1663_22729" x1="55.934" y1="11.9212" x2="55.934" y2="105.655" gradientUnits="userSpaceOnUse"><stop stop-color="white"></stop><stop offset="0.221837" stop-color="#EDEDED"></stop><stop offset="0.466692" stop-opacity="0.5"></stop><stop offset="1" stop-opacity="0"></stop></linearGradient><linearGradient id="paint1_linear_1663_22729" x1="22.0664" y1="14.999" x2="92.5104" y2="17.3414" gradientUnits="userSpaceOnUse"><stop offset="0.00270832" stop-color="#FFC67E"></stop><stop offset="0.956566" stop-color="#FFDFC2"></stop></linearGradient><linearGradient id="paint2_linear_1663_22729" x1="44.0664" y1="44.999" x2="68.8873" y2="46.3099" gradientUnits="userSpaceOnUse"><stop offset="0.00270832" stop-color="#FFC67E"></stop><stop offset="0.956566" stop-color="#FFDFC2"></stop></linearGradient></defs></svg>