<svg xmlns="http://www.w3.org/2000/svg" width="112" height="111" viewBox="0 0 112 111" fill="none"><mask id="mask0_1662_22711" style="mask-type:alpha" maskUnits="userSpaceOnUse" x="0" y="-1" width="112" height="112"><rect x="0.0664062" y="-0.000976562" width="111" height="111" fill="url(#paint0_linear_1662_22711)"></rect></mask><g mask="url(#mask0_1662_22711)"><path d="M55.7639 93.9955C76.918 93.9955 94.0668 76.8467 94.0668 55.6926C94.0668 34.5385 76.918 17.3896 55.7639 17.3896C34.6097 17.3896 17.4609 34.5385 17.4609 55.6926C17.4609 76.8467 34.6097 93.9955 55.7639 93.9955Z" stroke="white" stroke-width="2" stroke-miterlimit="10"></path><path d="M55.7653 93.8458C60.8249 93.8458 65.6772 91.8359 69.2549 88.2583C72.8325 84.6806 74.8424 79.8283 74.8424 74.7687C74.8411 69.7101 72.8306 64.8591 69.2531 61.2825C65.6756 57.706 60.824 55.6968 55.7653 55.6968C53.2603 55.6968 50.7799 55.2033 48.4656 54.2445C46.1514 53.2858 44.0487 51.8805 42.2776 50.1089C40.5065 48.3374 39.1018 46.2343 38.1437 43.9198C37.1855 41.6053 36.6927 39.1247 36.6934 36.6197C36.6907 34.1134 37.182 31.6312 38.1392 29.3149C39.0965 26.9986 40.5009 24.8937 42.2722 23.1205C44.0434 21.3473 46.1468 19.9407 48.4621 18.981C50.7773 18.0212 53.259 17.5272 55.7653 17.5272" stroke="white" stroke-width="2" stroke-miterlimit="10"></path><path d="M55.7637 43.5726C59.7101 43.5726 62.9093 40.3735 62.9093 36.4271C62.9093 32.4807 59.7101 29.2815 55.7637 29.2815C51.8173 29.2815 48.6182 32.4807 48.6182 36.4271C48.6182 40.3735 51.8173 43.5726 55.7637 43.5726Z" stroke="url(#paint1_linear_1662_22711)" stroke-width="2" stroke-miterlimit="10"></path><path d="M55.7637 81.2651C59.7101 81.2651 62.9093 78.066 62.9093 74.1196C62.9093 70.1732 59.7101 66.974 55.7637 66.974C51.8173 66.974 48.6182 70.1732 48.6182 74.1196C48.6182 78.066 51.8173 81.2651 55.7637 81.2651Z" stroke="url(#paint2_linear_1662_22711)" stroke-width="2" stroke-miterlimit="10"></path></g><defs><linearGradient id="paint0_linear_1662_22711" x1="55.934" y1="11.9212" x2="55.934" y2="105.655" gradientUnits="userSpaceOnUse"><stop stop-color="white"></stop><stop offset="0.221837" stop-color="#EDEDED"></stop><stop offset="0.466692" stop-opacity="0.5"></stop><stop offset="1" stop-opacity="0"></stop></linearGradient><linearGradient id="paint1_linear_1662_22711" x1="48.6182" y1="29.2815" x2="63.4161" y2="29.8676" gradientUnits="userSpaceOnUse"><stop offset="0.00270832" stop-color="#FFC67E"></stop><stop offset="0.956566" stop-color="#FFDFC2"></stop></linearGradient><linearGradient id="paint2_linear_1662_22711" x1="48.6182" y1="66.974" x2="63.4161" y2="67.5601" gradientUnits="userSpaceOnUse"><stop offset="0.00270832" stop-color="#FFC67E"></stop><stop offset="0.956566" stop-color="#FFDFC2"></stop></linearGradient></defs></svg>