<svg xmlns="http://www.w3.org/2000/svg" width="416" height="476" viewBox="0 0 416 476" fill="none"><g opacity="0.2"><path d="M22.4795 97.2279C-50.3091 125.256 -80.038 146.208 -83.0659 223.586C-83.3533 316.144 -45.106 327.353 97.4006 388.348C136.489 405.079 247.383 378.295 312.515 285.619C325.146 267.647 328.962 204.182 308.09 182.479C287.218 160.775 305.645 79.9417 200.63 98.2603C138.447 109.107 108.062 64.2733 22.4795 97.2279Z" stroke="url(#paint0_linear_4790_36673)" stroke-width="3"></path><path d="M38.0448 119.551C-23.1628 143.12 -48.1617 160.738 -50.7077 225.805C-50.9494 303.637 -18.7875 313.062 101.046 364.353C133.914 378.421 227.165 355.899 281.934 277.968C292.555 262.855 295.764 209.488 278.213 191.238C260.662 172.988 276.158 105.015 187.85 120.419C135.561 129.54 110.01 91.8397 38.0448 119.551Z" stroke="url(#paint1_linear_4790_36673)" stroke-width="3"></path><path d="M55.7806 144.986C7.76865 163.474 -11.8408 177.294 -13.838 228.333C-14.0275 289.385 11.2007 296.779 105.199 337.012C130.982 348.047 204.129 330.38 247.09 269.251C255.422 257.396 257.939 215.535 244.171 201.219C230.404 186.903 242.559 133.584 173.29 145.667C132.274 152.822 112.231 123.249 55.7806 144.986Z" stroke="url(#paint2_linear_4790_36673)" stroke-width="3"></path><path d="M76.357 174.498C43.6556 187.09 30.2993 196.503 28.939 231.267C28.8099 272.85 45.9931 277.886 110.017 305.289C127.578 312.805 177.399 300.772 206.66 259.136C212.335 251.062 214.049 222.549 204.672 212.799C195.295 203.048 203.574 166.732 156.394 174.962C128.457 179.835 114.806 159.693 76.357 174.498Z" stroke="url(#paint3_linear_4790_36673)" stroke-width="3"></path><path d="M95.9047 202.534C77.748 209.525 70.3322 214.752 69.577 234.053C69.5053 257.141 79.0458 259.937 114.593 275.152C124.344 279.326 152.005 272.644 168.252 249.527C171.403 245.044 172.355 229.213 167.149 223.799C161.942 218.386 166.539 198.222 140.343 202.792C124.832 205.497 117.253 194.314 95.9047 202.534Z" stroke="url(#paint4_linear_4790_36673)" stroke-width="3"></path><path d="M10.3699 80.2559C-71.1904 111.745 -104.499 135.292 -107.867 222.287C-108.159 326.35 -65.2939 338.965 94.424 407.589C138.233 426.411 262.496 396.334 335.455 292.16C349.604 271.957 353.86 200.605 330.463 176.197C307.066 151.789 327.69 60.9131 210.012 81.4747C140.331 93.6498 106.266 43.2327 10.3699 80.2559Z" stroke="url(#paint5_linear_4790_36673)" stroke-width="2"></path><path d="M0.474769 65.3257C-88.6595 99.7053 -125.062 125.411 -128.753 220.367C-129.084 333.953 -82.2421 347.718 92.2925 422.602C140.165 443.142 275.966 410.298 355.709 296.583C371.174 274.53 375.833 196.648 350.267 170.009C324.701 143.37 347.25 44.176 218.647 66.6328C142.497 79.9302 105.276 24.9034 0.474769 65.3257Z" stroke="url(#paint6_linear_4790_36673)" stroke-width="0.75"></path><path d="M-13.8464 44.8312C-113.637 83.3266 -154.392 112.11 -158.522 218.439C-158.891 345.629 -106.448 361.042 88.9556 444.898C142.553 467.899 294.589 431.124 383.864 303.791C401.178 279.097 406.392 191.888 377.769 162.058C349.146 132.228 374.39 21.1547 230.411 46.2987C145.156 61.1873 103.484 -0.430354 -13.8464 44.8312Z" stroke="#D4A56C" stroke-width="0.5"></path></g><defs><linearGradient id="paint0_linear_4790_36673" x1="308.367" y1="64.5465" x2="-107.027" y2="122.722" gradientUnits="userSpaceOnUse"><stop offset="0.00270832" stop-color="#FFC67E"></stop><stop offset="0.956566" stop-color="#FFDFC2"></stop></linearGradient><linearGradient id="paint1_linear_4790_36673" x1="278.446" y1="92.0695" x2="-70.8568" y2="140.989" gradientUnits="userSpaceOnUse"><stop offset="0.00270832" stop-color="#FFC67E"></stop><stop offset="0.956566" stop-color="#FFDFC2"></stop></linearGradient><linearGradient id="paint2_linear_4790_36673" x1="244.354" y1="123.43" x2="-29.6432" y2="161.803" gradientUnits="userSpaceOnUse"><stop offset="0.00270832" stop-color="#FFC67E"></stop><stop offset="0.956566" stop-color="#FFDFC2"></stop></linearGradient><linearGradient id="paint3_linear_4790_36673" x1="204.797" y1="159.815" x2="18.1739" y2="185.952" gradientUnits="userSpaceOnUse"><stop offset="0.00270832" stop-color="#FFC67E"></stop><stop offset="0.956566" stop-color="#FFDFC2"></stop></linearGradient><linearGradient id="paint4_linear_4790_36673" x1="167.218" y1="194.382" x2="63.5999" y2="208.893" gradientUnits="userSpaceOnUse"><stop offset="0.00270832" stop-color="#FFC67E"></stop><stop offset="0.956566" stop-color="#FFDFC2"></stop></linearGradient><linearGradient id="paint5_linear_4790_36673" x1="330.735" y1="43.6051" x2="-134.774" y2="108.719" gradientUnits="userSpaceOnUse"><stop offset="0.00270832" stop-color="#FFC67E"></stop><stop offset="0.956566" stop-color="#FFDFC2"></stop></linearGradient><linearGradient id="paint6_linear_4790_36673" x1="350.58" y1="25.2838" x2="-158.135" y2="96.4732" gradientUnits="userSpaceOnUse"><stop offset="0.00270832" stop-color="#FFC67E"></stop><stop offset="0.956566" stop-color="#FFDFC2"></stop></linearGradient></defs></svg>