<svg xmlns="http://www.w3.org/2000/svg" width="48" height="48" viewBox="0 0 48 48" fill="none"><circle cx="24" cy="24" r="24" fill="#DBB484"></circle><path d="M36.7211 20.9022C36.4467 19.636 35.9762 18.411 35.3198 17.291C34.9233 16.614 34.4588 15.9774 33.9383 15.3899C31.1977 12.2966 26.9998 10.7181 22.9 11.0415C21.3283 11.1654 19.7748 11.5611 18.3459 12.2295C15.01 13.7916 12.4147 16.7732 11.422 20.3328C10.3768 24.0782 11.3205 28.1883 13.7274 31.2283C14.0517 31.6378 14.3941 32.0335 14.7906 32.3759C15.2965 32.8137 15.5511 33.2825 15.5158 33.9535C15.4788 34.6666 15.4668 35.3858 15.5149 36.0972C15.576 37.0159 16.0466 37.274 16.875 36.8989C17.7335 36.5092 18.5911 36.1178 19.4427 35.7135C19.81 35.5398 20.1662 35.5088 20.5636 35.6103C21.3378 35.809 22.1189 35.9888 22.9266 35.9871C22.9301 35.9871 22.9344 35.9879 22.9378 35.9879C23.7653 35.9879 24.5499 36.0714 25.3834 35.9828C26.211 35.895 27.0299 35.7307 27.8273 35.4925C31.3095 34.455 34.3478 31.9595 35.8996 28.6571C37.0317 26.2485 37.2829 23.4872 36.722 20.9022H36.7211ZM25.6054 11.1834C25.6054 11.1834 25.6062 11.1843 25.6071 11.1843C25.6054 11.1843 25.6045 11.1843 25.6028 11.1852C25.6028 11.1843 25.6045 11.1834 25.6054 11.1834ZM31.8643 20.6063C31.0015 22.0059 30.143 23.408 29.2871 24.8119C28.8372 25.55 28.4381 26.3242 27.9357 27.0244C27.3938 27.778 26.5421 28.0438 25.5056 27.4287C24.7675 26.9909 24.1387 26.3982 23.4066 25.9483C22.9894 25.6911 22.6247 25.3496 22.2255 25.0614C21.7369 24.7087 21.5081 24.7655 21.029 25.1242C20.5842 25.4554 20.1481 25.7969 19.7111 26.1367C18.8707 26.7887 18.0474 27.4649 17.1649 28.061C16.8449 28.2769 16.499 28.387 16.1816 28.098C15.8539 27.7995 15.9605 27.4494 16.1696 27.1251C16.1962 27.0838 16.2221 27.0433 16.2487 27.0029C16.9051 25.9844 17.5623 24.9668 18.2203 23.9491C18.8457 22.9814 19.4333 21.9827 20.1042 21.045C20.61 20.3371 21.4995 19.9955 22.3357 20.2854C22.8053 20.4489 23.2045 20.7973 23.6053 21.082C24.0673 21.4098 24.5249 21.7461 24.9473 22.1246C25.5787 22.5401 26.2247 23.3539 27.023 22.7345C28.291 21.7504 29.5693 20.7792 30.8476 19.8089C31.3095 19.4579 31.7086 19.4923 31.9314 19.8846C32.0785 20.1418 32.0097 20.3706 31.8643 20.6063Z" fill="#452305"></path><path d="M31.8642 20.6062C31.0014 22.0058 30.1429 23.408 29.287 24.8118C28.8371 25.5499 28.438 26.3241 27.9356 27.0243C27.3936 27.7779 26.542 28.0437 25.5055 27.4286C24.7674 26.9908 24.1386 26.3981 23.4065 25.9482C22.9893 25.691 22.6246 25.3495 22.2254 25.0613C21.7368 24.7086 21.508 24.7654 21.0289 25.1241C20.5841 25.4553 20.148 25.7968 19.711 26.1366C18.8706 26.7886 18.0473 27.4648 17.1647 28.0609C16.8447 28.2768 16.4989 28.3869 16.1815 28.0979C15.8538 27.7994 15.9604 27.4493 16.1695 27.125C16.1961 27.0837 16.2219 27.0433 16.2486 27.0028C16.905 25.9843 17.5622 24.9667 18.2202 23.949C18.8456 22.9813 19.4331 21.9826 20.1041 21.0449C20.6099 20.337 21.4994 19.9955 22.3355 20.2854C22.8052 20.4488 23.2044 20.7972 23.6052 21.0819C24.0672 21.4097 24.5248 21.746 24.9472 22.1245C25.5786 22.54 26.2246 23.3538 27.0229 22.7344C28.2909 21.7503 29.5691 20.7791 30.8474 19.8088C31.3094 19.4578 31.7085 19.4922 31.9313 19.8845C32.0784 20.1417 32.0096 20.3705 31.8642 20.6062Z" fill="#DBB484"></path></svg>