<svg xmlns="http://www.w3.org/2000/svg" width="140" height="181" viewBox="0 0 140 181" fill="none"><g opacity="0.1"><path d="M75.3607 36.9074C47.7304 47.5468 36.4454 55.5002 35.296 84.8725C35.1869 120.007 49.7055 124.262 103.801 147.416C118.638 153.767 160.733 143.599 185.457 108.42C190.252 101.598 191.7 77.507 183.777 69.2684C175.854 61.0298 182.85 30.3456 142.986 37.2993C119.381 41.4168 107.847 24.3979 75.3607 36.9074Z" stroke="url(#paint0_linear_657_43416)" stroke-width="1.00779"></path><path d="M81.2678 45.3812C58.0336 54.3279 48.5441 61.0158 47.5776 85.7148C47.4858 115.26 59.6944 118.838 105.183 138.307C117.66 143.648 153.057 135.098 173.847 105.516C177.879 99.7791 179.097 79.5212 172.435 72.5934C165.772 65.6656 171.655 39.8634 138.133 45.7108C118.285 49.1732 108.586 34.8621 81.2678 45.3812Z" stroke="url(#paint1_linear_657_43416)" stroke-width="1.00779"></path><path d="M87.996 55.0363C69.7709 62.0542 62.3272 67.3003 61.569 86.6745C61.4971 109.85 71.0736 112.656 106.755 127.929C116.542 132.118 144.308 125.411 160.617 102.207C163.779 97.7067 164.735 81.8162 159.509 76.3819C154.283 70.9477 158.897 50.7081 132.602 55.2948C117.033 58.0108 109.425 46.785 87.996 55.0363Z" stroke="url(#paint2_linear_657_43416)" stroke-width="1.00779"></path><path d="M95.8071 66.2389C83.3937 71.0188 78.3238 74.592 77.8074 87.788C77.7584 103.573 84.2811 105.485 108.584 115.887C115.25 118.74 134.162 114.172 145.27 98.3672C147.424 95.3022 148.075 84.4789 144.515 80.7776C140.956 77.0763 144.098 63.2909 126.189 66.415C115.584 68.2648 110.402 60.6188 95.8071 66.2389Z" stroke="url(#paint3_linear_657_43416)" stroke-width="1.00779"></path><path d="M103.227 76.8813C96.3344 79.5353 93.5194 81.5192 93.2327 88.846C93.2055 97.6102 96.8271 98.6716 110.321 104.447C114.022 106.031 124.522 103.495 130.69 94.7198C131.886 93.018 132.247 87.0087 130.271 84.9536C128.294 82.8986 130.039 75.2445 120.095 76.9791C114.207 78.0062 111.33 73.7609 103.227 76.8813Z" stroke="url(#paint4_linear_657_43416)" stroke-width="1.00779"></path><path d="M70.7614 30.4649C39.8013 42.4178 27.1575 51.3562 25.879 84.3792C25.7682 123.882 42.0396 128.67 102.668 154.719C119.298 161.864 166.468 150.447 194.163 110.903C199.534 103.234 201.149 76.149 192.268 66.8838C183.386 57.6185 191.215 23.1224 146.545 30.9275C120.094 35.5491 107.163 16.411 70.7614 30.4649Z" stroke="url(#paint5_linear_657_43416)" stroke-width="0.671858"></path><path d="M66.9995 24.7973C33.1644 37.8477 19.346 47.6055 17.945 83.6505C17.8193 126.768 35.6004 131.993 101.853 160.418C120.026 168.215 171.575 155.748 201.845 112.582C207.716 104.21 209.484 74.6468 199.779 64.5348C190.075 54.4227 198.634 16.7689 149.817 25.2935C120.911 30.3411 106.782 9.45314 66.9995 24.7973Z" stroke="url(#paint6_linear_657_43416)" stroke-width="0.251947"></path><path d="M61.5673 17.0178C23.687 31.6305 8.21662 42.5567 6.64882 82.9186C6.50887 131.2 26.416 137.051 100.591 168.882C120.936 177.613 178.648 163.653 212.537 115.318C219.109 105.944 221.089 72.84 210.223 61.5167C199.358 50.1934 208.94 8.03027 154.286 17.5749C121.924 23.2265 106.105 -0.163359 61.5673 17.0178Z" stroke="#D4A56C" stroke-width="0.167964"></path></g><defs><linearGradient id="paint0_linear_657_43416" x1="183.883" y1="24.5016" x2="26.2003" y2="46.585" gradientUnits="userSpaceOnUse"><stop offset="0.00270832" stop-color="#FFC67E"></stop><stop offset="0.956566" stop-color="#FFDFC2"></stop></linearGradient><linearGradient id="paint1_linear_657_43416" x1="172.523" y1="34.9493" x2="39.929" y2="53.519" gradientUnits="userSpaceOnUse"><stop offset="0.00270832" stop-color="#FFC67E"></stop><stop offset="0.956566" stop-color="#FFDFC2"></stop></linearGradient><linearGradient id="paint2_linear_657_43416" x1="159.578" y1="46.8534" x2="55.5694" y2="61.4197" gradientUnits="userSpaceOnUse"><stop offset="0.00270832" stop-color="#FFC67E"></stop><stop offset="0.956566" stop-color="#FFDFC2"></stop></linearGradient><linearGradient id="paint3_linear_657_43416" x1="144.562" y1="60.6654" x2="73.721" y2="70.5867" gradientUnits="userSpaceOnUse"><stop offset="0.00270832" stop-color="#FFC67E"></stop><stop offset="0.956566" stop-color="#FFDFC2"></stop></linearGradient><linearGradient id="paint4_linear_657_43416" x1="130.297" y1="73.7868" x2="90.9638" y2="79.2954" gradientUnits="userSpaceOnUse"><stop offset="0.00270832" stop-color="#FFC67E"></stop><stop offset="0.956566" stop-color="#FFDFC2"></stop></linearGradient><linearGradient id="paint5_linear_657_43416" x1="192.371" y1="16.5523" x2="15.6652" y2="41.2692" gradientUnits="userSpaceOnUse"><stop offset="0.00270832" stop-color="#FFC67E"></stop><stop offset="0.956566" stop-color="#FFDFC2"></stop></linearGradient><linearGradient id="paint6_linear_657_43416" x1="199.898" y1="9.59753" x2="6.79151" y2="36.6208" gradientUnits="userSpaceOnUse"><stop offset="0.00270832" stop-color="#FFC67E"></stop><stop offset="0.956566" stop-color="#FFDFC2"></stop></linearGradient></defs></svg>