<svg xmlns="http://www.w3.org/2000/svg" width="98" height="80" viewBox="0 0 98 80" fill="none">
  <g filter="url(#filter0_d_4818_33187)">
    <rect width="58" height="40" rx="20" transform="matrix(1 -8.74228e-08 -8.74228e-08 -1 20 60)" fill="#D9D9D9"/>
    <rect width="58" height="40" rx="20" transform="matrix(1 -8.74228e-08 -8.74228e-08 -1 20 60)" fill="url(#paint0_linear_4818_33187)"/>
    <path fill-rule="evenodd" clip-rule="evenodd" d="M41.0719 40.5751L45.585 43.4765L43.9627 46L36.9627 41.5L35 40.2382L36.9627 38.9765L43.9627 34.4765L45.585 37L41.5792 39.5751L58.3798 39.5751L60.8794 37.0756L63.8791 40.0754L60.8794 43.0751L58.3794 40.5751L41.0719 40.5751Z" fill="#2E2E2E"/>
  </g>
  <defs>
    <filter id="filter0_d_4818_33187" x="0" y="0" width="98" height="80" filterUnits="userSpaceOnUse" color-interpolation-filters="sRGB">
      <feFlood flood-opacity="0" result="BackgroundImageFix"/>
      <feColorMatrix in="SourceAlpha" type="matrix" values="0 0 0 0 0 0 0 0 0 0 0 0 0 0 0 0 0 0 127 0" result="hardAlpha"/>
      <feOffset/>
      <feGaussianBlur stdDeviation="10"/>
      <feComposite in2="hardAlpha" operator="out"/>
      <feColorMatrix type="matrix" values="0 0 0 0 1 0 0 0 0 1 0 0 0 0 1 0 0 0 0.3 0"/>
      <feBlend mode="normal" in2="BackgroundImageFix" result="effect1_dropShadow_4818_33187"/>
      <feBlend mode="normal" in="SourceGraphic" in2="effect1_dropShadow_4818_33187" result="shape"/>
    </filter>
    <linearGradient id="paint0_linear_4818_33187" x1="0" y1="0" x2="61.123" y2="5.53927" gradientUnits="userSpaceOnUse">
      <stop stop-color="#FFEEDA"/>
      <stop offset="1" stop-color="#FFC885"/>
    </linearGradient>
  </defs>
</svg>