<svg xmlns="http://www.w3.org/2000/svg" width="32" height="32" viewBox="0 0 32 32" fill="none"><path d="M5.60547 21.1797H11.8666" stroke="url(#paint0_linear_5467_6931)" stroke-linecap="round" stroke-linejoin="round"></path><path d="M7.19922 6.77301V5.98661C7.19922 5.33129 7.72972 4.80078 8.38505 4.80078H26.0134C26.6687 4.80078 27.1992 5.33129 27.1992 5.98661V23.615C27.1992 24.2703 26.6687 24.8008 26.0134 24.8008H25.0959" stroke="url(#paint1_linear_5467_6931)" stroke-linecap="round" stroke-linejoin="round"></path><path d="M11.8672 7.49219V26.2757" stroke="url(#paint2_linear_5467_6931)" stroke-linecap="round" stroke-linejoin="round"></path><path d="M18.1289 21.1797H24.393" stroke="url(#paint3_linear_5467_6931)" stroke-linecap="round" stroke-linejoin="round"></path><path d="M11.8672 12.2852H18.1283" stroke="url(#paint4_linear_5467_6931)" stroke-linecap="round" stroke-linejoin="round"></path><path d="M18.1289 7.49219V26.2757" stroke="url(#paint5_linear_5467_6931)" stroke-linecap="round" stroke-linejoin="round"></path><path d="M23.278 7.49194H6.71935C6.10417 7.49194 5.60547 7.99064 5.60547 8.60582V25.1645C5.60547 25.7796 6.10417 26.2783 6.71935 26.2783H23.278C23.8932 26.2783 24.3919 25.7796 24.3919 25.1645V8.60582C24.3919 7.99064 23.8932 7.49194 23.278 7.49194Z" stroke="white" stroke-linecap="round" stroke-linejoin="round"></path><defs><linearGradient id="paint0_linear_5467_6931" x1="5.60547" y1="21.1797" x2="11.7226" y2="22.6967" gradientUnits="userSpaceOnUse"><stop offset="0.00270832" stop-color="#FFC67E"></stop><stop offset="0.956566" stop-color="#FFDFC2"></stop></linearGradient><linearGradient id="paint1_linear_5467_6931" x1="7.19922" y1="4.80078" x2="27.9085" y2="5.62105" gradientUnits="userSpaceOnUse"><stop offset="0.00270832" stop-color="#FFC67E"></stop><stop offset="0.956566" stop-color="#FFDFC2"></stop></linearGradient><linearGradient id="paint2_linear_5467_6931" x1="11.8672" y1="7.49219" x2="12.9043" y2="7.49437" gradientUnits="userSpaceOnUse"><stop offset="0.00270832" stop-color="#FFC67E"></stop><stop offset="0.956566" stop-color="#FFDFC2"></stop></linearGradient><linearGradient id="paint3_linear_5467_6931" x1="18.1289" y1="21.1797" x2="24.2486" y2="22.6981" gradientUnits="userSpaceOnUse"><stop offset="0.00270832" stop-color="#FFC67E"></stop><stop offset="0.956566" stop-color="#FFDFC2"></stop></linearGradient><linearGradient id="paint4_linear_5467_6931" x1="11.8672" y1="12.2852" x2="17.9843" y2="13.8022" gradientUnits="userSpaceOnUse"><stop offset="0.00270832" stop-color="#FFC67E"></stop><stop offset="0.956566" stop-color="#FFDFC2"></stop></linearGradient><linearGradient id="paint5_linear_5467_6931" x1="18.1289" y1="7.49219" x2="19.166" y2="7.49437" gradientUnits="userSpaceOnUse"><stop offset="0.00270832" stop-color="#FFC67E"></stop><stop offset="0.956566" stop-color="#FFDFC2"></stop></linearGradient></defs></svg>