<svg xmlns="http://www.w3.org/2000/svg" width="108" height="40" viewBox="0 0 108 40" fill="none"><rect x="0.57293" y="0.363946" width="106.272" height="39.2721" stroke="url(#paint0_linear_6173_22623)" stroke-width="0.727891"></rect><rect x="0.57293" y="0.363946" width="106.272" height="39.2721" stroke="url(#paint1_linear_6173_22623)" stroke-width="0.727891"></rect><g clip-path="url(#clip0_6173_22623)"><mask id="mask0_6173_22623" style="mask-type:alpha" maskUnits="userSpaceOnUse" x="16" y="7" width="76" height="25"><path fill-rule="evenodd" clip-rule="evenodd" d="M29.1336 13.6087C28.354 13.7963 28.0294 13.3243 27.7002 12.5398C27.3381 11.6763 26.7904 10.8159 26.1141 10.1727C24.9306 9.04728 23.1336 9.12172 22.0233 10.332C21.3874 11.0243 20.9251 11.916 20.545 12.7869C20.2877 13.3764 20.0348 13.6399 19.369 13.6236C17.7814 13.5864 17.6842 13.4866 18.2378 11.9652C18.9934 9.89138 20.1021 8.10493 22.339 7.3442C24.5236 6.59984 26.4867 7.07474 28.1251 8.65277C29.177 9.66658 29.8757 10.9365 30.2378 12.3641C30.5536 13.6087 30.5431 13.6117 29.1351 13.6102L29.1336 13.6087ZM60.2129 22.3127C60.2264 27.3445 64.6224 31.8866 69.6798 31.7377H69.6813C74.6788 31.9968 79.2933 27.4711 79.3068 22.402C79.3203 17.2183 75.1382 12.9204 69.994 12.7865C64.5536 12.6435 60.1995 17.2347 60.2129 22.3127ZM62.4244 21.9167C62.6608 17.982 66.1037 14.8037 69.8938 15.021H69.8923C74.0863 15.0642 77.2644 18.521 77.0863 22.4809C76.8918 26.822 73.5551 29.6431 69.6259 29.5538C65.402 29.457 62.185 25.9005 62.4244 21.9167ZM16.2103 22.8934C16.2103 22.1326 16.21 21.372 16.2096 20.6115L16.2096 20.6113L16.2096 20.6111L16.2096 20.611L16.2096 20.6108L16.2096 20.6106C16.209 19.0899 16.2083 17.5695 16.2103 16.0483C16.2118 14.9586 16.5874 14.5864 17.7036 14.5864C22.0413 14.5834 26.3775 14.582 30.7151 14.5894C31.8688 14.5909 32.3012 15.0226 32.3027 16.1615C32.3102 20.5264 32.3102 24.8913 32.3102 29.2562C32.3102 30.8342 31.9211 31.2481 30.3321 31.2555C27.2744 31.2701 24.2167 31.2658 21.159 31.2615L20.0123 31.26C19.8737 31.26 19.735 31.2604 19.5962 31.2609H19.596H19.5958H19.5956H19.5954H19.5952H19.5951C18.9117 31.2632 18.2265 31.2655 17.5465 31.2123C16.4991 31.1304 16.2148 30.7866 16.2133 29.7385C16.2106 28.3692 16.2112 27.0004 16.2117 25.6316C16.212 24.719 16.2124 23.8063 16.2118 22.8934H16.2103ZM25.963 26.4916C25.8834 26.1851 25.8086 25.8948 25.7368 25.6157L25.7368 25.6156L25.7367 25.6152C25.5804 25.0081 25.4378 24.454 25.2882 23.9013C25.1176 23.2671 25.0458 22.7267 25.5889 22.1416C26.2757 21.4002 26.0812 20.3165 25.3226 19.7031C24.5834 19.1061 23.5809 19.1642 22.8837 19.8431C22.2552 20.4564 22.1984 21.5878 22.8642 22.2592C23.3116 22.7103 23.2996 23.1435 23.144 23.672C23.0212 24.0912 22.9106 24.5132 22.7999 24.9354C22.7164 25.254 22.6328 25.5727 22.544 25.8902C22.4468 26.2371 22.4737 26.4901 22.9151 26.4916C23.5466 26.4936 24.1781 26.493 24.8534 26.4923H24.8536H24.8538H24.854H24.8542H24.8544C25.2092 26.492 25.5761 26.4916 25.9615 26.4916H25.963ZM55.6268 21.6166C55.4913 22.1575 55.3543 22.6979 55.2174 23.2383L55.2173 23.2389L55.2172 23.2393C54.9294 24.3748 54.6417 25.5103 54.367 26.6499L54.3564 26.6939C54.008 28.1402 54.0073 28.1432 52.4592 28.1476C51.0053 28.1505 51.0046 28.1477 50.6687 26.7684L50.6547 26.711C50.2268 24.9617 49.7615 23.2214 49.1914 21.4841V27.0147C49.1914 28.1223 49.1674 28.1461 48.0707 28.1491C47.8454 28.1497 47.6198 28.1485 47.3941 28.1474H47.3941H47.394H47.3939H47.3938H47.3937H47.3934C47.0709 28.1457 46.7483 28.1441 46.4263 28.1476C45.925 28.152 45.7111 27.9153 45.7111 27.4181C45.7156 23.8973 45.7141 20.3765 45.7051 16.8557C45.7051 16.3064 45.9744 16.1084 46.4906 16.1114C47.6861 16.1203 48.8832 16.1203 50.0787 16.1143C50.6024 16.1114 50.8837 16.3242 51.0138 16.8587C51.2965 18.0178 51.6081 19.17 51.9197 20.3226C52.0155 20.6769 52.1114 21.0312 52.2064 21.3859C52.2677 21.6121 52.353 21.8325 52.5879 22.0632C52.6313 21.9291 52.6765 21.7956 52.7218 21.6622L52.7218 21.6621L52.7218 21.6621C52.8217 21.3673 52.9216 21.0727 53.0009 20.7725L53.08 20.4714L53.0801 20.4711C53.3937 19.2776 53.7078 18.0824 53.9824 16.8795C54.1036 16.3481 54.3789 16.1143 54.9071 16.1143C56.1281 16.1173 57.349 16.1173 58.57 16.1143C59.0742 16.1129 59.2792 16.357 59.2777 16.8498C59.2702 20.3706 59.2687 23.8914 59.2777 27.4122C59.2777 27.9138 59.0712 28.1476 58.5715 28.1446C58.4161 28.1439 58.2606 28.1421 58.1049 28.1403L58.1046 28.1403C57.6369 28.135 57.1685 28.1297 56.7026 28.152C56.0129 28.1863 55.7809 27.8677 55.7884 27.2142C55.8019 26.0264 55.7974 24.8387 55.7929 23.6505C55.7909 23.1275 55.7889 22.6044 55.7884 22.0811V21.6389L55.6268 21.6166ZM33.4902 20.4777V20.4776C33.4896 19.4204 33.4889 18.363 33.4909 17.305C33.4939 16.1572 33.5448 16.1111 34.7298 16.1081C35.6263 16.1071 36.5222 16.1074 37.4183 16.1078H37.4185H37.4187H37.4188C37.867 16.1079 38.3153 16.1081 38.7637 16.1081C42.5014 16.1081 44.4555 17.8826 44.6665 21.6044C44.7249 22.6257 44.6037 23.6931 44.3613 24.689C43.8735 26.6988 42.1094 28.0356 39.9024 28.116C38.7255 28.1583 37.5474 28.152 36.3693 28.1456H36.3693H36.3693H36.3692C35.6796 28.1419 34.9899 28.1383 34.3004 28.1443C33.6719 28.1503 33.4819 27.8346 33.4864 27.2645C33.496 26.0257 33.4942 24.7869 33.4924 23.5481C33.4916 23.0525 33.4909 22.557 33.4909 22.0614V22.0629C33.4909 21.5346 33.4906 21.0064 33.4902 20.4781V20.4779V20.4777ZM37.5129 22.1254H37.5084C37.5084 22.343 37.5065 22.5607 37.5046 22.7783V22.7784V22.7784V22.7784C37.4995 23.3547 37.4944 23.9311 37.5248 24.5059C37.5368 24.7277 37.6984 25.0671 37.875 25.1356C38.9627 25.5539 40.3243 24.8334 40.4755 23.7184C40.5907 22.8668 40.6176 21.9825 40.5323 21.128C40.3932 19.7465 39.5627 19.1331 38.1832 19.212C37.7283 19.2388 37.4979 19.4145 37.5084 19.8939C37.52 20.4177 37.5175 20.9415 37.515 21.4653C37.5139 21.6858 37.5129 21.9064 37.5129 22.1269V22.1254ZM87.4415 16.2598C87.2267 16.0972 86.8865 16.1001 86.1515 16.1064H86.1514C85.9348 16.1083 85.6839 16.1104 85.3917 16.1087C85.2426 16.1087 85.092 16.1021 84.9413 16.0954C84.5887 16.0798 84.2359 16.0641 83.9015 16.134C83.5708 16.204 83.1234 16.4481 83.0142 16.725C82.0524 19.1673 81.1179 21.6195 80.1833 24.0718L80.1831 24.0723L80.1829 24.0729L80.1824 24.0742L80.1822 24.0746C79.7664 25.1657 79.3506 26.2568 78.9324 27.347C78.7109 27.9276 78.9458 28.136 79.4949 28.142C79.7595 28.1445 80.0243 28.1406 80.2892 28.1367C80.7974 28.1292 81.3056 28.1217 81.8112 28.1598C82.5653 28.2164 82.9962 27.9395 83.1443 27.2056C83.2715 26.5729 83.6456 26.2945 84.3144 26.3406C84.9593 26.3853 85.6132 26.3957 86.2566 26.3406C86.9823 26.2781 87.3788 26.5401 87.512 27.2592C87.6272 27.877 87.9923 28.1881 88.6686 28.1554C89.156 28.1324 89.6439 28.1377 90.1321 28.1431H90.1322H90.1323C90.4667 28.1467 90.8013 28.1504 91.1359 28.1449C91.9574 28.1315 92.0546 27.9827 91.7524 27.1966C91.4867 26.506 91.2215 25.8151 90.9563 25.1242L90.9554 25.1221L90.9549 25.1207C90.048 22.7583 89.141 20.3957 88.2152 18.0411C88.0748 17.6837 87.9729 17.3919 87.8897 17.1537L87.8897 17.1536C87.7185 16.6634 87.6266 16.4001 87.4415 16.2598ZM85.2197 20.4781L85.4501 20.4647C85.6718 21.1876 85.8945 21.9104 86.1401 22.7077L86.1445 22.7222L86.3434 23.3677C86.1617 23.3677 85.9939 23.3703 85.8362 23.3727C85.4483 23.3788 85.1215 23.3839 84.7992 23.3468C84.672 23.3334 84.4506 23.0401 84.4805 22.9285C84.6447 22.3043 84.8389 21.6887 85.0333 21.0725C85.0957 20.8745 85.1582 20.6765 85.2197 20.4781ZM74.8526 19.5194C74.0985 17.5261 72.3643 16.408 69.9837 16.3813H69.9852C68.7344 16.3664 67.4356 16.7772 66.5767 17.4888C64.5239 19.189 63.8835 21.3922 64.4999 23.9067C65.073 26.2469 66.6426 27.6121 69.0546 28.0617C71.1059 28.4443 73.5359 27.426 74.5907 25.6321C75.4137 24.2297 75.2985 23.9766 73.6855 23.6491L73.674 23.6468C72.3253 23.3737 72.3131 23.3712 71.6566 24.5885C71.2122 25.4132 70.5808 25.8762 69.6082 25.7571C68.7074 25.6485 68.1643 25.0768 67.9219 24.2729C67.488 22.8303 67.5314 21.3729 68.1014 19.9705C68.3947 19.25 69.0082 18.8659 69.7937 18.8019C70.5733 18.7394 71.3678 18.9403 71.6192 19.6787C72.0187 20.8518 72.704 20.9992 73.7244 20.627C73.8213 20.5916 73.9293 20.5883 74.038 20.5851C74.1072 20.583 74.1767 20.5809 74.2436 20.5705C75.0127 20.4484 75.1279 20.2474 74.8526 19.5194Z" fill="#2E2E2E"></path></mask><g mask="url(#mask0_6173_22623)"><rect x="13.7686" y="4" width="80" height="30" fill="#DBB484"></rect></g></g><defs><linearGradient id="paint0_linear_6173_22623" x1="107.209" y1="40" x2="84.9086" y2="20.5974" gradientUnits="userSpaceOnUse"><stop offset="0.00270832" stop-color="#FFC67E"></stop><stop offset="0.956566" stop-color="#FFDFC2" stop-opacity="0"></stop></linearGradient><linearGradient id="paint1_linear_6173_22623" x1="0.208984" y1="0" x2="39.7601" y2="20.5233" gradientUnits="userSpaceOnUse"><stop offset="0.00270832" stop-color="#FFC67E"></stop><stop offset="0.956566" stop-color="#FFDFC2" stop-opacity="0"></stop></linearGradient><clipPath id="clip0_6173_22623"><rect width="75.7007" height="24.7483" fill="white" transform="translate(16.209 7)"></rect></clipPath></defs></svg>