<svg xmlns="http://www.w3.org/2000/svg" width="48" height="48" viewBox="0 0 48 48" fill="none"><circle cx="24" cy="24" r="24" fill="#DBB484"></circle><g clip-path="url(#clip0_6445_19539)"><path d="M35.345 29.6136L31.9958 26.2643C30.7996 25.0681 28.7661 25.5467 28.2876 27.1016C27.9288 28.1782 26.7326 28.7763 25.6561 28.537C23.2637 27.9389 20.0341 24.8289 19.436 22.317C19.0771 21.2404 19.7948 20.0442 20.8714 19.6854C22.4264 19.2069 22.9049 17.1734 21.7087 15.9773L18.3594 12.628C17.4025 11.7907 15.9671 11.7907 15.1298 12.628L12.8571 14.9007C10.5843 17.293 13.0963 23.6327 18.7183 29.2547C24.3403 34.8767 30.68 37.5083 33.0723 35.116L35.345 32.8432C36.1824 31.8863 36.1824 30.4509 35.345 29.6136Z" fill="#452305"></path></g><defs><clipPath id="clip0_6445_19539"><rect width="24" height="24" fill="white" transform="translate(12 12)"></rect></clipPath></defs></svg>