<svg xmlns="http://www.w3.org/2000/svg" width="24" height="24" viewBox="0 0 24 24" fill="none"><g id="LOCATION"><path id="Vector" d="M4.93701 17.0791C3.53654 15.6819 2.58198 13.9006 2.1941 11.9607C1.80622 10.0208 2.00244 8.00941 2.75795 6.18105C3.51345 4.35269 4.79428 2.7895 6.4384 1.68925C8.08252 0.588996 10.016 0.00112134 11.9943 1.60258e-06C13.9726 -0.00111814 15.9068 0.584567 17.5522 1.68296C19.1976 2.78135 20.4802 4.34309 21.2377 6.17059C21.9953 7.9981 22.1938 10.0092 21.8081 11.9496C21.4224 13.8899 20.4699 15.6723 19.071 17.0711L12 23.9871L4.93701 17.0791ZM4.00001 10.0001C3.99712 11.0511 4.20271 12.0923 4.60489 13.0633C5.00707 14.0343 5.59784 14.9159 6.34301 15.6571L12 21.1891L17.665 15.6491C18.5936 14.7179 19.2783 13.5721 19.6584 12.3131C20.0386 11.0541 20.1026 9.72087 19.8446 8.43131C19.5867 7.14174 19.0148 5.93566 18.1796 4.91981C17.3444 3.90396 16.2716 3.10967 15.0563 2.60725C13.8409 2.10483 12.5205 1.90978 11.2118 2.03936C9.90305 2.16894 8.64647 2.61916 7.55324 3.35015C6.46001 4.08115 5.56385 5.07039 4.94408 6.2303C4.32432 7.39021 4.00006 8.68502 4.00001 10.0001Z" fill="#DBB484"></path><circle id="Ellipse 2074" cx="12" cy="10" r="3" fill="#DBB484"></circle></g></svg>