<svg xmlns="http://www.w3.org/2000/svg" width="24" height="24" viewBox="0 0 24 24" fill="none"><path d="M21 1H3C2.20435 1 1.44129 1.31607 0.87868 1.87868C0.31607 2.44129 0 3.20435 0 4L0 23H24V4C24 3.20435 23.6839 2.44129 23.1213 1.87868C22.5587 1.31607 21.7956 1 21 1ZM3 3H21C21.2652 3 21.5196 3.10536 21.7071 3.29289C21.8946 3.48043 22 3.73478 22 4V4.667L14.122 12.546C13.5584 13.1073 12.7954 13.4225 12 13.4225C11.2046 13.4225 10.4416 13.1073 9.878 12.546L2 4.667V4C2 3.73478 2.10536 3.48043 2.29289 3.29289C2.48043 3.10536 2.73478 3 3 3ZM2 21V7.5L8.464 13.96C9.40263 14.8963 10.6743 15.422 12 15.422C13.3257 15.422 14.5974 14.8963 15.536 13.96L22 7.5V21H2Z" fill="#DBB484"></path></svg>