<svg xmlns="http://www.w3.org/2000/svg" width="124" height="110" viewBox="0 0 124 110" fill="none"><g opacity="0.6"><mask id="mask0_4638_37837" style="mask-type:alpha" maskUnits="userSpaceOnUse" x="0" y="0" width="124" height="110"><rect x="0.5" width="123" height="109.967" fill="url(#paint0_linear_4638_37837)"></rect></mask><g mask="url(#mask0_4638_37837)"><path fill-rule="evenodd" clip-rule="evenodd" d="M58.944 83.8302H68.0936V70.1591L69.5098 68.7152H78.7563L80.1726 70.1591V83.8302H89.3222V65.6021H58.944V83.8302ZM83.9607 17.7688V32.1084H98.0252L90.9936 24.9386L83.9607 17.7688ZM81.1289 33.5521L82.5452 34.9958H100.027V93.0325H48.2383V15.7275H81.1292L81.1289 33.5521ZM46.8225 12.8398H82.5455L83.5465 13.2629L102.445 32.5312L102.86 33.5521V94.4759L101.444 95.9198H46.8225L45.4062 94.4759V14.2838L46.8225 12.8398ZM78.4082 49.0408V42.158L79.8245 40.7141H85.5278L86.9441 42.158V49.0408H90.7384L92.0662 49.9996L96.894 63.6733L95.5662 65.6021H92.1547V85.2739L90.7384 86.7179H57.5282L56.112 85.2739V65.6021H52.7005L51.373 63.6733L56.2007 49.9996L57.5282 49.0408H78.4082ZM84.1118 49.0408V43.6017H81.2403V49.0408H84.1118ZM70.9261 83.8302V71.6028H77.3406V83.8302H70.9261ZM54.7089 62.7147H93.5575L89.7495 51.9282H58.5171L54.7089 62.7147Z" fill="url(#paint1_linear_4638_37837)"></path><path fill-rule="evenodd" clip-rule="evenodd" d="M83.9607 17.7688V32.1084H98.0252L90.9936 24.9386L83.9607 17.7688ZM81.1289 33.5521L82.5452 34.9958H100.027V93.0325H48.2383V15.7275H81.1292L81.1289 33.5521ZM46.8225 12.8398H82.5455L83.5465 13.2629L102.445 32.5312L102.86 33.5521V94.4759L101.444 95.9198H46.8225L45.4062 94.4759V14.2838L46.8225 12.8398Z" fill="white"></path><path fill-rule="evenodd" clip-rule="evenodd" d="M26.8614 28.8849H23.9146V57.9031H21.082V27.4409L22.4983 25.9975H28.7174V14.2838L30.1337 12.8398H35.8701L37.2863 14.2838V25.9975H37.7269L39.1426 27.4412V78.208L38.8594 78.497L39.0321 78.7607L36.6696 84.5626L34.418 90.0932V94.4759H31.5855V90.0934L26.9715 78.7607L27.1441 78.497L26.8609 78.2082L26.8614 28.8849ZM33.0018 86.0534L35.6087 79.6519H30.3958L33.0018 86.0534ZM34.4541 25.9975V15.7275H31.5495V25.9975H34.4541ZM29.6934 76.7645H36.3109V28.8849H29.6934V76.7645Z" fill="url(#paint2_linear_4638_37837)"></path><circle opacity="0.5" cx="62" cy="55" r="62" fill="url(#paint3_radial_4638_37837)"></circle></g></g><defs><linearGradient id="paint0_linear_4638_37837" x1="62.4073" y1="11.8113" x2="62.4073" y2="104.672" gradientUnits="userSpaceOnUse"><stop stop-color="white"></stop><stop offset="0.221837" stop-color="#EDEDED"></stop><stop offset="0.466692" stop-opacity="0.5"></stop><stop offset="1" stop-opacity="0"></stop></linearGradient><linearGradient id="paint1_linear_4638_37837" x1="45.4062" y1="12.8398" x2="104.946" y2="14.4707" gradientUnits="userSpaceOnUse"><stop offset="0.00270832" stop-color="#FFC67E"></stop><stop offset="0.956566" stop-color="#FFDFC2"></stop></linearGradient><linearGradient id="paint2_linear_4638_37837" x1="21.082" y1="12.8398" x2="39.811" y2="13.004" gradientUnits="userSpaceOnUse"><stop offset="0.00270832" stop-color="#FFC67E"></stop><stop offset="0.956566" stop-color="#FFDFC2"></stop></linearGradient><radialGradient id="paint3_radial_4638_37837" cx="0" cy="0" r="1" gradientUnits="userSpaceOnUse" gradientTransform="translate(62 55) rotate(90) scale(62)"><stop stop-color="#FFDBA6" stop-opacity="0.3"></stop><stop offset="1" stop-color="#FFE6C0" stop-opacity="0"></stop></radialGradient></defs></svg>