<svg xmlns="http://www.w3.org/2000/svg" width="123" height="110" viewBox="0 0 123 110" fill="none"><g opacity="0.6"><mask id="mask0_4638_37844" style="mask-type:alpha" maskUnits="userSpaceOnUse" x="0" y="0" width="123" height="110"><rect width="123" height="109.967" fill="url(#paint0_linear_4638_37844)"></rect></mask><g mask="url(#mask0_4638_37844)"><path d="M61.5396 65.1601C54.4044 65.1601 48.6016 59.4132 48.6016 52.3502C48.6016 45.2872 54.4059 39.5403 61.5396 39.5403C68.6732 39.5403 74.4776 45.2872 74.4776 52.3502C74.4776 59.4132 68.6732 65.1601 61.5396 65.1601ZM61.5396 41.0656C55.2556 41.0656 50.1436 46.1269 50.1436 52.3487C50.1436 58.5704 55.2556 63.6318 61.5396 63.6318C67.8236 63.6318 72.9356 58.5704 72.9356 52.3487C72.9356 46.1269 67.8236 41.0656 61.5396 41.0656Z" fill="white" stroke="white" stroke-width="1.2"></path><path d="M83.8398 89.0582H39.2383V88.2948C39.2383 76.12 49.2417 66.2156 61.5383 66.2156C73.8348 66.2156 83.8398 76.12 83.8398 88.2948V89.0582ZM40.7942 87.5314H82.2838C81.8767 76.5506 72.7276 67.7424 61.5398 67.7424C50.352 67.7424 41.2013 76.5506 40.7958 87.5314H40.7942Z" fill="white" stroke="white" stroke-width="1.2"></path><path d="M32.5124 70.5172C26.8808 70.5172 22.3008 65.9811 22.3008 60.4067C22.3008 54.8323 26.8823 50.2961 32.5124 50.2961C38.1425 50.2961 42.7241 54.8323 42.7241 60.4067C42.7241 65.9811 38.1425 70.5172 32.5124 70.5172ZM32.5124 51.8214C27.732 51.8214 23.8429 55.672 23.8429 60.4051C23.8429 65.1383 27.732 68.9889 32.5124 68.9889C37.2929 68.9889 41.182 65.1383 41.182 60.4051C41.182 55.672 37.2929 51.8214 32.5124 51.8214Z" fill="white" stroke="white" stroke-width="1.2"></path><path d="M40.0161 89.0602H15.0391V88.2967C15.0391 78.7557 22.879 70.9934 32.5154 70.9934C36.8394 70.9934 40.9907 72.5691 44.2013 75.4303L43.1696 76.5647C40.2412 73.9554 36.457 72.5187 32.5154 72.5187C23.9877 72.5187 17.0037 79.1863 16.5996 87.5318H40.0161V89.0586V89.0602Z" fill="white" stroke="white" stroke-width="1.2"></path><path d="M90.571 70.5172C84.9393 70.5172 80.3594 65.9811 80.3594 60.4067C80.3594 54.8323 84.9409 50.2961 90.571 50.2961C96.2011 50.2961 100.783 54.8323 100.783 60.4067C100.783 65.9811 96.2011 70.5172 90.571 70.5172ZM90.571 51.8214C85.7906 51.8214 81.9015 55.672 81.9015 60.4051C81.9015 65.1383 85.7906 68.9889 90.571 68.9889C95.3515 68.9889 99.2406 65.1383 99.2406 60.4051C99.2406 55.672 95.3515 51.8214 90.571 51.8214Z" fill="white" stroke="white" stroke-width="1.2"></path><path d="M108.048 89.0602H83.1925V87.5333H106.487C106.083 79.1878 99.0991 72.5202 90.5714 72.5202C86.5866 72.5202 82.7731 73.9844 79.8323 76.6411L78.793 75.5128C82.019 72.5981 86.2011 70.9934 90.5714 70.9934C100.208 70.9934 108.048 78.7557 108.048 88.2967V89.0602Z" fill="white" stroke="white" stroke-width="1.2"></path><mask id="path-8-inside-1_4638_37844" fill="white"><path d="M55.25 31.9718C54.954 31.9718 54.6594 31.8802 54.4065 31.6985C53.9609 31.3779 53.7419 30.845 53.8344 30.3076L54.9971 23.5957L50.0717 18.8428C49.677 18.4626 49.5382 17.9038 49.7078 17.3847C49.8775 16.8656 50.3216 16.4945 50.8675 16.4167L57.6742 15.438L60.7183 9.33074C60.9619 8.84217 61.4554 8.53833 62.0059 8.53833C62.5564 8.53833 63.0499 8.84217 63.2935 9.33074L66.3376 15.438L73.1443 16.4167C73.6902 16.4945 74.1343 16.8656 74.304 17.3847C74.4736 17.9038 74.3348 18.4626 73.94 18.8428L69.0146 23.5957L70.1774 30.3076C70.2699 30.845 70.0509 31.3779 69.6052 31.6985C69.1596 32.0191 68.5798 32.0604 68.0925 31.8069L62.0043 28.6373L55.9162 31.8069C55.705 31.9168 55.4752 31.9718 55.247 31.9718H55.25ZM62.0074 27.0967C62.2372 27.0967 62.467 27.1517 62.6767 27.2601L68.6245 30.3564L67.488 23.7988C67.4078 23.3377 67.562 22.8674 67.9013 22.5407L72.7125 17.8961L66.0631 16.9404C65.5943 16.8732 65.1903 16.5816 64.9821 16.1617L62.009 10.1949L59.0358 16.1617C58.8261 16.5816 58.4221 16.8717 57.9548 16.9388L51.3054 17.8961L56.1167 22.5407C56.456 22.8674 56.6102 23.3377 56.53 23.7988L55.3935 30.3564L61.3413 27.2601C61.551 27.1517 61.7807 27.0967 62.009 27.0967H62.0074Z"></path></mask><path d="M55.25 31.9718C54.954 31.9718 54.6594 31.8802 54.4065 31.6985C53.9609 31.3779 53.7419 30.845 53.8344 30.3076L54.9971 23.5957L50.0717 18.8428C49.677 18.4626 49.5382 17.9038 49.7078 17.3847C49.8775 16.8656 50.3216 16.4945 50.8675 16.4167L57.6742 15.438L60.7183 9.33074C60.9619 8.84217 61.4554 8.53833 62.0059 8.53833C62.5564 8.53833 63.0499 8.84217 63.2935 9.33074L66.3376 15.438L73.1443 16.4167C73.6902 16.4945 74.1343 16.8656 74.304 17.3847C74.4736 17.9038 74.3348 18.4626 73.94 18.8428L69.0146 23.5957L70.1774 30.3076C70.2699 30.845 70.0509 31.3779 69.6052 31.6985C69.1596 32.0191 68.5798 32.0604 68.0925 31.8069L62.0043 28.6373L55.9162 31.8069C55.705 31.9168 55.4752 31.9718 55.247 31.9718H55.25ZM62.0074 27.0967C62.2372 27.0967 62.467 27.1517 62.6767 27.2601L68.6245 30.3564L67.488 23.7988C67.4078 23.3377 67.562 22.8674 67.9013 22.5407L72.7125 17.8961L66.0631 16.9404C65.5943 16.8732 65.1903 16.5816 64.9821 16.1617L62.009 10.1949L59.0358 16.1617C58.8261 16.5816 58.4221 16.8717 57.9548 16.9388L51.3054 17.8961L56.1167 22.5407C56.456 22.8674 56.6102 23.3377 56.53 23.7988L55.3935 30.3564L61.3413 27.2601C61.551 27.1517 61.7807 27.0967 62.009 27.0967H62.0074Z" fill="url(#paint1_linear_4638_37844)"></path><path d="M54.4065 31.6985L53.2385 33.322L53.2396 33.3228L54.4065 31.6985ZM53.8344 30.3076L51.8638 29.9662L51.8634 29.9683L53.8344 30.3076ZM54.9971 23.5957L56.9678 23.9371L57.1487 22.8926L56.3859 22.1565L54.9971 23.5957ZM50.0717 18.8428L51.4605 17.4036L51.4591 17.4022L50.0717 18.8428ZM50.8675 16.4167L51.1499 18.3966L51.1521 18.3963L50.8675 16.4167ZM57.6742 15.438L57.9588 17.4176L58.9965 17.2684L59.4642 16.3302L57.6742 15.438ZM60.7183 9.33074L58.9285 8.4382L58.9283 8.43856L60.7183 9.33074ZM63.2935 9.33074L65.0835 8.43856L65.0833 8.4382L63.2935 9.33074ZM66.3376 15.438L64.5476 16.3302L65.0153 17.2684L66.0529 17.4176L66.3376 15.438ZM73.1443 16.4167L72.8597 18.3963L72.8619 18.3966L73.1443 16.4167ZM73.94 18.8428L72.5527 17.4022L72.5512 17.4036L73.94 18.8428ZM69.0146 23.5957L67.6258 22.1565L66.863 22.8926L67.044 23.9371L69.0146 23.5957ZM70.1774 30.3076L72.1484 29.9683L72.148 29.9662L70.1774 30.3076ZM68.0925 31.8069L67.1689 33.5809L67.1696 33.5813L68.0925 31.8069ZM62.0043 28.6373L62.9279 26.8633L62.0043 26.3824L61.0808 26.8633L62.0043 28.6373ZM55.9162 31.8069L56.8394 33.5811L56.8398 33.5809L55.9162 31.8069ZM62.6767 27.2601L63.6002 25.4861L63.595 25.4834L62.6767 27.2601ZM68.6245 30.3564L67.701 32.1304L71.2851 33.9963L70.5951 30.0149L68.6245 30.3564ZM67.488 23.7988L69.4586 23.4573L69.4584 23.4561L67.488 23.7988ZM67.9013 22.5407L69.2886 23.9812L69.2903 23.9796L67.9013 22.5407ZM72.7125 17.8961L74.1016 19.3351L77.0408 16.4977L72.9971 15.9165L72.7125 17.8961ZM66.0631 16.9404L66.3477 14.9607L66.3468 14.9606L66.0631 16.9404ZM64.9821 16.1617L66.7739 15.2733L66.7722 15.2697L64.9821 16.1617ZM62.009 10.1949L63.7991 9.30295L62.009 5.71043L60.2189 9.30295L62.009 10.1949ZM59.0358 16.1617L60.8251 17.0554L60.8259 17.0537L59.0358 16.1617ZM57.9548 16.9388L57.6702 14.9592L57.6699 14.9592L57.9548 16.9388ZM51.3054 17.8961L51.0204 15.9166L46.978 16.4985L49.9164 19.3351L51.3054 17.8961ZM56.1167 22.5407L54.7276 23.9796L54.7293 23.9812L56.1167 22.5407ZM56.53 23.7988L54.5595 23.4561L54.5593 23.4573L56.53 23.7988ZM55.3935 30.3564L53.4228 30.0149L52.7328 33.9963L56.317 32.1304L55.3935 30.3564ZM61.3413 27.2601L60.4229 25.4834L60.4177 25.4861L61.3413 27.2601ZM55.25 29.9718C55.3693 29.9718 55.4836 30.0096 55.5735 30.0742L53.2396 33.3228C53.8353 33.7507 54.5386 33.9718 55.25 33.9718V29.9718ZM55.5746 30.075C55.7453 30.1979 55.8437 30.4247 55.8054 30.6469L51.8634 29.9683C51.6401 31.2653 52.1764 32.5579 53.2385 33.322L55.5746 30.075ZM55.8051 30.649L56.9678 23.9371L53.0265 23.2543L51.8638 29.9662L55.8051 30.649ZM56.3859 22.1565L51.4605 17.4036L48.683 20.2819L53.6083 25.0349L56.3859 22.1565ZM51.4591 17.4022C51.6165 17.5538 51.6775 17.7959 51.6089 18.0059L47.8067 16.7635C47.3989 18.0117 47.7374 19.3714 48.6844 20.2834L51.4591 17.4022ZM51.6089 18.0059C51.5393 18.2189 51.3501 18.3681 51.1499 18.3966L50.585 14.4367C49.2931 14.621 48.2156 15.5122 47.8067 16.7635L51.6089 18.0059ZM51.1521 18.3963L57.9588 17.4176L57.3896 13.4583L50.5828 14.437L51.1521 18.3963ZM59.4642 16.3302L62.5082 10.2229L58.9283 8.43856L55.8842 14.5458L59.4642 16.3302ZM62.508 10.2233C62.41 10.4199 62.2062 10.5383 62.0059 10.5383V6.53833C60.7045 6.53833 59.5138 7.26438 58.9285 8.4382L62.508 10.2233ZM62.0059 10.5383C61.8056 10.5383 61.6018 10.4199 61.5037 10.2233L65.0833 8.4382C64.498 7.26438 63.3073 6.53833 62.0059 6.53833V10.5383ZM61.5036 10.2229L64.5476 16.3302L68.1276 14.5458L65.0835 8.43856L61.5036 10.2229ZM66.0529 17.4176L72.8597 18.3963L73.429 14.437L66.6222 13.4583L66.0529 17.4176ZM72.8619 18.3966C72.6617 18.3681 72.4725 18.2189 72.4029 18.0059L76.205 16.7635C75.7962 15.5122 74.7187 14.621 73.4267 14.4367L72.8619 18.3966ZM72.4029 18.0059C72.3343 17.7958 72.3953 17.5538 72.5527 17.4022L75.3274 20.2834C76.2743 19.3714 76.6129 18.0117 76.205 16.7635L72.4029 18.0059ZM72.5512 17.4036L67.6258 22.1565L70.4034 25.0349L75.3288 20.2819L72.5512 17.4036ZM67.044 23.9371L68.2067 30.649L72.148 29.9662L70.9853 23.2543L67.044 23.9371ZM68.2064 30.6469C68.1681 30.4247 68.2665 30.1979 68.4372 30.075L70.7733 33.322C71.8354 32.5579 72.3717 31.2653 72.1484 29.9683L68.2064 30.6469ZM68.4372 30.075C68.6059 29.9537 68.8348 29.9387 69.0153 30.0326L67.1696 33.5813C68.3247 34.182 69.7133 34.0846 70.7733 33.322L68.4372 30.075ZM69.0161 30.0329L62.9279 26.8633L61.0808 30.4112L67.1689 33.5809L69.0161 30.0329ZM61.0808 26.8633L54.9926 30.0329L56.8398 33.5809L62.9279 30.4112L61.0808 26.8633ZM54.993 30.0327C55.067 29.9942 55.1539 29.9718 55.247 29.9718V33.9718C55.7965 33.9718 56.3429 33.8394 56.8394 33.5811L54.993 30.0327ZM55.247 33.9718H55.25V29.9718H55.247V33.9718ZM62.0074 29.0967C61.9184 29.0967 61.8332 29.0755 61.7583 29.0368L63.595 25.4834C63.1007 25.2279 62.556 25.0967 62.0074 25.0967V29.0967ZM61.7532 29.0341L67.701 32.1304L69.548 28.5824L63.6002 25.4861L61.7532 29.0341ZM70.5951 30.0149L69.4586 23.4573L65.5174 24.1403L66.6539 30.698L70.5951 30.0149ZM69.4584 23.4561C69.4926 23.6531 69.425 23.8499 69.2886 23.9812L66.5139 21.1002C65.6989 21.885 65.3229 23.0223 65.5175 24.1415L69.4584 23.4561ZM69.2903 23.9796L74.1016 19.3351L71.3235 16.4572L66.5122 21.1018L69.2903 23.9796ZM72.9971 15.9165L66.3477 14.9607L65.7785 18.92L72.428 19.8758L72.9971 15.9165ZM66.3468 14.9606C66.524 14.986 66.6871 15.0981 66.7739 15.2733L63.1903 17.0501C63.6934 18.065 64.6646 18.7604 65.7794 18.9201L66.3468 14.9606ZM66.7722 15.2697L63.7991 9.30295L60.2189 11.0869L63.192 17.0537L66.7722 15.2697ZM60.2189 9.30295L57.2458 15.2697L60.8259 17.0537L63.7991 11.0869L60.2189 9.30295ZM57.2466 15.268C57.3327 15.0956 57.4943 14.9845 57.6702 14.9592L58.2395 18.9185C59.3499 18.7588 60.3195 18.0675 60.8251 17.0554L57.2466 15.268ZM57.6699 14.9592L51.0204 15.9166L51.5904 19.8757L58.2398 18.9184L57.6699 14.9592ZM49.9164 19.3351L54.7276 23.9796L57.5058 21.1018L52.6945 16.4572L49.9164 19.3351ZM54.7293 23.9812C54.5929 23.8499 54.5253 23.6531 54.5595 23.4561L58.5004 24.1415C58.695 23.0223 58.319 21.885 57.5041 21.1002L54.7293 23.9812ZM54.5593 23.4573L53.4228 30.0149L57.3641 30.698L58.5006 24.1403L54.5593 23.4573ZM56.317 32.1304L62.2648 29.0341L60.4177 25.4861L54.4699 28.5824L56.317 32.1304ZM62.2596 29.0368C62.1857 29.075 62.1006 29.0967 62.009 29.0967V25.0967C61.4609 25.0967 60.9163 25.2284 60.4229 25.4834L62.2596 29.0368ZM62.009 25.0967H62.0074V29.0967H62.009V25.0967Z" fill="url(#paint2_linear_4638_37844)" mask="url(#path-8-inside-1_4638_37844)"></path><mask id="path-10-inside-2_4638_37844" fill="white"><path d="M88.2326 40.5243C87.9366 40.5243 87.642 40.4327 87.3891 40.251C86.9435 39.9304 86.7245 39.3975 86.817 38.8601L87.4924 34.9606L84.6303 32.1986C84.2356 31.8185 84.0968 31.2596 84.2664 30.7405C84.436 30.2214 84.8802 29.8504 85.4261 29.7725L89.3815 29.203L91.1503 25.6547C91.3939 25.1661 91.8874 24.8623 92.4379 24.8623C92.9884 24.8623 93.4819 25.1661 93.7255 25.6547L95.4943 29.203L99.4497 29.7725C99.9956 29.8504 100.44 30.2214 100.609 30.7405C100.779 31.2596 100.64 31.8185 100.245 32.1986L97.3833 34.9606L98.0588 38.8601C98.1513 39.3975 97.9323 39.9304 97.4866 40.251C97.041 40.5717 96.4612 40.6129 95.9739 40.3594L92.4363 38.5181L88.8988 40.3594C88.6876 40.4694 88.4578 40.5243 88.2296 40.5243H88.2326ZM92.4394 36.9775C92.6692 36.9775 92.899 37.0325 93.1087 37.1409L96.5059 38.909L95.8567 35.1637C95.7765 34.7026 95.9307 34.2308 96.27 33.9041L99.0179 31.252L95.2198 30.7054C94.751 30.6382 94.347 30.3466 94.1388 29.9267L92.441 26.5189L90.7431 29.9267C90.5334 30.3466 90.1294 30.6367 89.6621 30.7039L85.864 31.2505L88.612 33.9025C88.9512 34.2293 89.1055 34.6995 89.0253 35.1606L88.3761 38.9059L91.7733 37.1379C91.983 37.0295 92.2127 36.9745 92.441 36.9745L92.4394 36.9775Z"></path></mask><path d="M88.2326 40.5243C87.9366 40.5243 87.642 40.4327 87.3891 40.251C86.9435 39.9304 86.7245 39.3975 86.817 38.8601L87.4924 34.9606L84.6303 32.1986C84.2356 31.8185 84.0968 31.2596 84.2664 30.7405C84.436 30.2214 84.8802 29.8504 85.4261 29.7725L89.3815 29.203L91.1503 25.6547C91.3939 25.1661 91.8874 24.8623 92.4379 24.8623C92.9884 24.8623 93.4819 25.1661 93.7255 25.6547L95.4943 29.203L99.4497 29.7725C99.9956 29.8504 100.44 30.2214 100.609 30.7405C100.779 31.2596 100.64 31.8185 100.245 32.1986L97.3833 34.9606L98.0588 38.8601C98.1513 39.3975 97.9323 39.9304 97.4866 40.251C97.041 40.5717 96.4612 40.6129 95.9739 40.3594L92.4363 38.5181L88.8988 40.3594C88.6876 40.4694 88.4578 40.5243 88.2296 40.5243H88.2326ZM92.4394 36.9775C92.6692 36.9775 92.899 37.0325 93.1087 37.1409L96.5059 38.909L95.8567 35.1637C95.7765 34.7026 95.9307 34.2308 96.27 33.9041L99.0179 31.252L95.2198 30.7054C94.751 30.6382 94.347 30.3466 94.1388 29.9267L92.441 26.5189L90.7431 29.9267C90.5334 30.3466 90.1294 30.6367 89.6621 30.7039L85.864 31.2505L88.612 33.9025C88.9512 34.2293 89.1055 34.6995 89.0253 35.1606L88.3761 38.9059L91.7733 37.1379C91.983 37.0295 92.2127 36.9745 92.441 36.9745L92.4394 36.9775Z" fill="url(#paint3_linear_4638_37844)"></path><path d="M87.3891 40.251L86.2211 41.8745L86.2222 41.8753L87.3891 40.251ZM86.817 38.8601L84.8464 38.5188L84.846 38.5208L86.817 38.8601ZM87.4924 34.9606L89.4631 35.302L89.644 34.2575L88.8813 33.5215L87.4924 34.9606ZM84.6303 32.1986L86.0192 30.7595L86.0177 30.758L84.6303 32.1986ZM85.4261 29.7725L85.7085 31.7525L85.7111 31.7521L85.4261 29.7725ZM89.3815 29.203L89.6665 31.1826L90.7039 31.0333L91.1714 30.0953L89.3815 29.203ZM91.1503 25.6547L89.3605 24.7622L89.3603 24.7625L91.1503 25.6547ZM93.7255 25.6547L95.5155 24.7625L95.5153 24.7622L93.7255 25.6547ZM95.4943 29.203L93.7043 30.0953L94.1719 31.0333L95.2093 31.1826L95.4943 29.203ZM99.4497 29.7725L99.1647 31.7521L99.1673 31.7525L99.4497 29.7725ZM100.245 32.1986L98.8581 30.758L98.8566 30.7595L100.245 32.1986ZM97.3833 34.9606L95.9945 33.5215L95.2318 34.2575L95.4127 35.302L97.3833 34.9606ZM98.0588 38.8601L100.03 38.5208L100.029 38.5188L98.0588 38.8601ZM95.9739 40.3594L95.0504 42.1335L95.051 42.1338L95.9739 40.3594ZM92.4363 38.5181L93.3598 36.744L92.4363 36.2634L91.5129 36.744L92.4363 38.5181ZM88.8988 40.3594L89.822 42.1336L89.8222 42.1335L88.8988 40.3594ZM92.4394 36.9775L90.6544 36.0754L89.1878 38.9775H92.4394V36.9775ZM93.1087 37.1409L94.032 35.3668L94.027 35.3642L93.1087 37.1409ZM96.5059 38.909L95.5826 40.6831L99.1666 42.5483L98.4765 38.5674L96.5059 38.909ZM95.8567 35.1637L97.8273 34.8221L97.8271 34.821L95.8567 35.1637ZM96.27 33.9041L97.6573 35.3446L97.6588 35.3432L96.27 33.9041ZM99.0179 31.252L100.407 32.6911L103.346 29.8543L99.3028 29.2724L99.0179 31.252ZM95.2198 30.7054L95.5047 28.7258L95.5035 28.7256L95.2198 30.7054ZM94.1388 29.9267L95.9306 29.0383L95.9289 29.0349L94.1388 29.9267ZM92.441 26.5189L94.2311 25.627L92.441 22.0339L90.6508 25.627L92.441 26.5189ZM90.7431 29.9267L92.5324 30.8204L92.5333 30.8186L90.7431 29.9267ZM89.6621 30.7039L89.3775 28.7242L89.3773 28.7243L89.6621 30.7039ZM85.864 31.2505L85.5791 29.2709L81.5357 29.8528L84.4751 32.6896L85.864 31.2505ZM88.612 33.9025L87.2231 35.3417L87.2246 35.3431L88.612 33.9025ZM89.0253 35.1606L87.0548 34.818L87.0547 34.819L89.0253 35.1606ZM88.3761 38.9059L86.4054 38.5643L85.7154 42.5453L89.2994 40.68L88.3761 38.9059ZM91.7733 37.1379L90.8549 35.3612L90.8499 35.3637L91.7733 37.1379ZM92.441 36.9745L94.226 37.8766L95.6926 34.9745H92.441V36.9745ZM88.2326 38.5243C88.3519 38.5243 88.4661 38.5622 88.556 38.6267L86.2222 41.8753C86.8179 42.3033 87.5212 42.5243 88.2326 42.5243V38.5243ZM88.5571 38.6275C88.7279 38.7504 88.8263 38.9773 88.788 39.1994L84.846 38.5208C84.6227 39.8178 85.159 41.1104 86.2211 41.8745L88.5571 38.6275ZM88.7877 39.2014L89.4631 35.302L85.5218 34.6193L84.8464 38.5188L88.7877 39.2014ZM88.8813 33.5215L86.0192 30.7595L83.2415 33.6378L86.1036 36.3998L88.8813 33.5215ZM86.0177 30.758C86.1751 30.9096 86.2361 31.1517 86.1675 31.3617L82.3653 30.1193C81.9574 31.3676 82.296 32.7273 83.243 33.6392L86.0177 30.758ZM86.1675 31.3617C86.0979 31.5748 85.9086 31.7239 85.7085 31.7525L85.1436 27.7926C83.8517 27.9769 82.7742 28.868 82.3653 30.1193L86.1675 31.3617ZM85.7111 31.7521L89.6665 31.1826L89.0965 27.2234L85.141 27.7929L85.7111 31.7521ZM91.1714 30.0953L92.9402 26.547L89.3603 24.7625L87.5916 28.3108L91.1714 30.0953ZM92.94 26.5473C92.842 26.7439 92.6382 26.8623 92.4379 26.8623V22.8623C91.1365 22.8623 89.9458 23.5884 89.3605 24.7622L92.94 26.5473ZM92.4379 26.8623C92.2375 26.8623 92.0338 26.7439 91.9357 26.5473L95.5153 24.7622C94.93 23.5884 93.7393 22.8623 92.4379 22.8623V26.8623ZM91.9356 26.547L93.7043 30.0953L97.2842 28.3108L95.5155 24.7625L91.9356 26.547ZM95.2093 31.1826L99.1647 31.7521L99.7347 27.7929L95.7793 27.2234L95.2093 31.1826ZM99.1673 31.7525C98.9671 31.7239 98.7779 31.5748 98.7083 31.3617L102.51 30.1193C102.102 28.868 101.024 27.9769 99.7321 27.7926L99.1673 31.7525ZM98.7083 31.3617C98.6397 31.1517 98.7007 30.9096 98.8581 30.758L101.633 33.6392C102.58 32.7273 102.918 31.3676 102.51 30.1193L98.7083 31.3617ZM98.8566 30.7595L95.9945 33.5215L98.7722 36.3998L101.634 33.6378L98.8566 30.7595ZM95.4127 35.302L96.0881 39.2014L100.029 38.5188L99.354 34.6193L95.4127 35.302ZM96.0878 39.1994C96.0495 38.9772 96.1479 38.7504 96.3186 38.6275L98.6547 41.8745C99.7168 41.1104 100.253 39.8178 100.03 38.5208L96.0878 39.1994ZM96.3186 38.6275C96.4873 38.5062 96.7162 38.4912 96.8967 38.5851L95.051 42.1338C96.2061 42.7346 97.5947 42.6371 98.6547 41.8745L96.3186 38.6275ZM96.8973 38.5854L93.3598 36.744L91.5129 40.2922L95.0504 42.1335L96.8973 38.5854ZM91.5129 36.744L87.9754 38.5854L89.8222 42.1335L93.3598 40.2922L91.5129 36.744ZM87.9756 38.5852C88.0496 38.5468 88.1365 38.5243 88.2296 38.5243V42.5243C88.7791 42.5243 89.3255 42.392 89.822 42.1336L87.9756 38.5852ZM88.2296 42.5243H88.2326V38.5243H88.2296V42.5243ZM92.4394 38.9775C92.3504 38.9775 92.2652 38.9563 92.1903 38.9176L94.027 35.3642C93.5327 35.1087 92.988 34.9775 92.4394 34.9775V38.9775ZM92.1854 38.915L95.5826 40.6831L97.4292 37.1348L94.032 35.3668L92.1854 38.915ZM98.4765 38.5674L97.8273 34.8221L93.8861 35.5053L94.5353 39.2505L98.4765 38.5674ZM97.8271 34.821C97.8611 35.0164 97.7949 35.2121 97.6573 35.3446L94.8826 32.4635C94.0665 33.2495 93.6919 34.3888 93.8863 35.5064L97.8271 34.821ZM97.6588 35.3432L100.407 32.6911L97.6291 29.8129L94.8811 32.465L97.6588 35.3432ZM99.3028 29.2724L95.5047 28.7258L94.9349 32.685L98.7331 33.2316L99.3028 29.2724ZM95.5035 28.7256C95.6807 28.751 95.8438 28.8632 95.9306 29.0383L92.347 30.8152C92.8502 31.83 93.8213 32.5254 94.9361 32.6852L95.5035 28.7256ZM95.9289 29.0349L94.2311 25.627L90.6508 27.4108L92.3487 30.8186L95.9289 29.0349ZM90.6508 25.627L88.953 29.0349L92.5333 30.8186L94.2311 27.4108L90.6508 25.627ZM88.9539 29.033C89.04 28.8606 89.2016 28.7495 89.3775 28.7242L89.9468 32.6835C91.0572 32.5239 92.0268 31.8326 92.5324 30.8204L88.9539 29.033ZM89.3773 28.7243L85.5791 29.2709L86.1489 33.2301L89.947 32.6835L89.3773 28.7243ZM84.4751 32.6896L87.2231 35.3417L90.0009 32.4634L87.2529 29.8114L84.4751 32.6896ZM87.2246 35.3431C87.0882 35.2117 87.0206 35.0149 87.0548 34.818L90.9957 35.5033C91.1903 34.3842 90.8143 33.2468 89.9994 32.462L87.2246 35.3431ZM87.0547 34.819L86.4054 38.5643L90.3467 39.2475L90.9959 35.5022L87.0547 34.819ZM89.2994 40.68L92.6966 38.912L90.8499 35.3637L87.4527 37.1318L89.2994 40.68ZM92.6916 38.9145C92.6177 38.9527 92.5326 38.9745 92.441 38.9745V34.9745C91.8929 34.9745 91.3483 35.1062 90.8549 35.3612L92.6916 38.9145ZM90.656 36.0724L90.6544 36.0754L94.2244 37.8797L94.226 37.8766L90.656 36.0724Z" fill="url(#paint4_linear_4638_37844)" mask="url(#path-10-inside-2_4638_37844)"></path><path d="M35.5134 41.5243C36.0165 41.5237 36.5154 41.368 36.9394 41.0617C36.9395 41.0616 36.9396 41.0615 36.9397 41.0615L36.6965 40.725L35.5134 41.5243Z" fill="url(#paint5_linear_4638_37844)" stroke="url(#paint6_linear_4638_37844)" stroke-width="2"></path><circle opacity="0.5" cx="60.6939" cy="54.6939" r="61.6939" fill="url(#paint7_radial_4638_37844)"></circle></g></g><defs><linearGradient id="paint0_linear_4638_37844" x1="61.9073" y1="11.8113" x2="61.9073" y2="104.672" gradientUnits="userSpaceOnUse"><stop stop-color="white"></stop><stop offset="0.221837" stop-color="#EDEDED"></stop><stop offset="0.466692" stop-opacity="0.5"></stop><stop offset="1" stop-opacity="0"></stop></linearGradient><linearGradient id="paint1_linear_4638_37844" x1="49.6367" y1="8.53833" x2="75.2478" y2="9.60924" gradientUnits="userSpaceOnUse"><stop offset="0.00270832" stop-color="#FFC67E"></stop><stop offset="0.956566" stop-color="#FFDFC2"></stop></linearGradient><linearGradient id="paint2_linear_4638_37844" x1="49.6367" y1="8.53833" x2="75.2478" y2="9.60924" gradientUnits="userSpaceOnUse"><stop offset="0.00270832" stop-color="#FFC67E"></stop><stop offset="0.956566" stop-color="#FFDFC2"></stop></linearGradient><linearGradient id="paint3_linear_4638_37844" x1="84.1953" y1="24.8623" x2="101.262" y2="25.5738" gradientUnits="userSpaceOnUse"><stop offset="0.00270832" stop-color="#FFC67E"></stop><stop offset="0.956566" stop-color="#FFDFC2"></stop></linearGradient><linearGradient id="paint4_linear_4638_37844" x1="84.1953" y1="24.8623" x2="101.262" y2="25.5738" gradientUnits="userSpaceOnUse"><stop offset="0.00270832" stop-color="#FFC67E"></stop><stop offset="0.956566" stop-color="#FFDFC2"></stop></linearGradient><linearGradient id="paint5_linear_4638_37844" x1="23.0625" y1="24.8623" x2="40.1294" y2="25.5738" gradientUnits="userSpaceOnUse"><stop offset="0.00270832" stop-color="#FFC67E"></stop><stop offset="0.956566" stop-color="#FFDFC2"></stop></linearGradient><linearGradient id="paint6_linear_4638_37844" x1="23.0625" y1="24.8623" x2="40.1294" y2="25.5738" gradientUnits="userSpaceOnUse"><stop offset="0.00270832" stop-color="#FFC67E"></stop><stop offset="0.956566" stop-color="#FFDFC2"></stop></linearGradient><radialGradient id="paint7_radial_4638_37844" cx="0" cy="0" r="1" gradientUnits="userSpaceOnUse" gradientTransform="translate(60.6939 54.6939) rotate(90) scale(61.6939)"><stop stop-color="#FFDBA6" stop-opacity="0.3"></stop><stop offset="1" stop-color="#FFE6C0" stop-opacity="0"></stop></radialGradient></defs></svg>