<svg xmlns="http://www.w3.org/2000/svg" width="124" height="110" viewBox="0 0 124 110" fill="none"><g opacity="0.6"><mask id="mask0_4647_63761" style="mask-type:alpha" maskUnits="userSpaceOnUse" x="0" y="0" width="124" height="110"><rect x="0.5" width="123" height="109.967" fill="url(#paint0_linear_4647_63761)"></rect></mask><g mask="url(#mask0_4647_63761)"><path d="M96.9641 96.6827H26.8548C25.6702 96.6827 24.5359 96.1786 23.7426 95.3003C22.9493 94.422 22.5641 93.2428 22.6863 92.0651L28.8328 32.8034C29.0056 31.1308 30.4058 29.8691 32.0903 29.8691H42.4328C44.2381 29.8691 45.7071 31.3371 45.7071 33.141V57.6892C45.7071 57.9763 45.8997 58.1184 45.9838 58.1657C46.0663 58.2131 46.2864 58.3078 46.5341 58.1627L60.8188 49.8043C61.5648 49.3674 62.459 49.3629 63.208 49.7936C63.9571 50.2244 64.4065 50.9957 64.4065 51.8603V57.1973C64.4065 57.4845 64.5991 57.625 64.6816 57.6723C64.7642 57.7197 64.9843 57.8159 65.2319 57.6723L79.6955 49.285C80.4415 48.8527 81.3342 48.8511 82.0817 49.2804C82.8292 49.7111 83.2755 50.4825 83.2755 51.344V57.3348C83.2755 57.6311 83.4788 57.7716 83.566 57.819C83.6531 57.8663 83.8824 57.9565 84.13 57.7915L97.4472 48.8893C98.1794 48.4005 99.1179 48.3532 99.896 48.7687C100.674 49.1841 101.157 49.9891 101.157 50.8689V92.4974C101.157 94.8054 99.2769 96.6842 96.9672 96.6842L96.9641 96.6827ZM30.658 32.9928L24.5115 92.253C24.4412 92.9251 24.6521 93.5697 25.1046 94.0722C25.5571 94.5732 26.1777 94.8497 26.8533 94.8497H96.9641C98.2635 94.8497 99.3197 93.7942 99.3197 92.4959V50.8689C99.3197 50.5726 99.1164 50.4321 99.0293 50.3847C98.9422 50.3389 98.7129 50.2473 98.4652 50.4122L85.1481 59.3144C84.4159 59.8047 83.4773 59.8505 82.6992 59.4351C81.9212 59.0196 81.4381 58.2146 81.4381 57.3348V51.344C81.4381 51.0584 81.2455 50.9163 81.163 50.8689C81.0804 50.8216 80.8619 50.7254 80.6127 50.8689L66.1491 59.2563C65.4031 59.6886 64.5104 59.6901 63.7629 59.2609C63.0154 58.8302 62.5691 58.0588 62.5691 57.1973V51.8603C62.5691 51.5731 62.3765 51.4311 62.2924 51.3837C62.2099 51.3364 61.9897 51.2417 61.7421 51.3868L47.4573 59.7451C46.7114 60.182 45.8171 60.1866 45.0681 59.7558C44.3176 59.3266 43.8697 58.5537 43.8697 57.6892V33.141C43.8697 32.3482 43.2231 31.7021 42.4298 31.7021H32.0903C31.3505 31.7021 30.7344 32.2566 30.658 32.9928Z" fill="white"></path><path d="M29.7454 32.8981L30.658 32.9928M30.658 32.9928L24.5115 92.253C24.4412 92.9251 24.6521 93.5697 25.1046 94.0722C25.5571 94.5732 26.1777 94.8497 26.8533 94.8497H96.9641C98.2635 94.8497 99.3197 93.7942 99.3197 92.4959V50.869C99.3197 50.5726 99.1164 50.4321 99.0293 50.3847C98.9422 50.3389 98.7129 50.2473 98.4652 50.4122L85.1481 59.3144C84.4159 59.8047 83.4773 59.8505 82.6992 59.4351C81.9212 59.0196 81.4381 58.2146 81.4381 57.3348V51.344C81.4381 51.0584 81.2455 50.9163 81.163 50.869C81.0804 50.8216 80.8619 50.7254 80.6127 50.869L66.1491 59.2563C65.4031 59.6886 64.5104 59.6901 63.7629 59.2609C63.0154 58.8302 62.5691 58.0588 62.5691 57.1973V51.8603C62.5691 51.5731 62.3765 51.4311 62.2924 51.3837C62.2099 51.3364 61.9897 51.2417 61.7421 51.3868L47.4573 59.7451C46.7114 60.182 45.8171 60.1866 45.0681 59.7558C44.3176 59.3266 43.8697 58.5537 43.8697 57.6892V33.141C43.8697 32.3482 43.2231 31.7021 42.4298 31.7021H32.0903C31.3505 31.7021 30.7344 32.2566 30.658 32.9928ZM96.9641 96.6827H26.8548C25.6702 96.6827 24.5359 96.1786 23.7426 95.3003C22.9493 94.422 22.5641 93.2428 22.6863 92.0651L28.8328 32.8034C29.0056 31.1308 30.4058 29.8691 32.0903 29.8691H42.4328C44.2381 29.8691 45.7071 31.3371 45.7071 33.141V57.6892C45.7071 57.9763 45.8997 58.1184 45.9838 58.1657C46.0663 58.2131 46.2864 58.3078 46.5341 58.1627L60.8188 49.8043C61.5648 49.3674 62.459 49.3629 63.208 49.7936C63.9571 50.2244 64.4065 50.9957 64.4065 51.8603V57.1973C64.4065 57.4845 64.5991 57.625 64.6816 57.6723C64.7642 57.7197 64.9843 57.8159 65.2319 57.6723L79.6955 49.2849C80.4415 48.8527 81.3342 48.8511 82.0817 49.2804C82.8292 49.7111 83.2755 50.4825 83.2755 51.344V57.3348C83.2755 57.6311 83.4788 57.7716 83.566 57.819C83.6531 57.8663 83.8824 57.9565 84.13 57.7915L97.4472 48.8893C98.1794 48.4005 99.1179 48.3532 99.896 48.7687C100.674 49.1841 101.157 49.9891 101.157 50.869V92.4974C101.157 94.8054 99.2769 96.6842 96.9672 96.6842L96.9641 96.6827Z" stroke="white" stroke-width="1.24"></path><path d="M33.1717 26.4078C32.2882 26.4078 31.4887 25.9557 31.0317 25.1981C30.5777 24.445 30.5517 23.5331 30.9629 22.7587C32.2011 20.4201 35.4463 16.4548 43.2712 16.1584C43.2972 16.1584 43.3216 16.1584 43.3476 16.1584C43.4302 16.1615 51.6647 16.4716 55.7813 12.1839C56.33 11.6127 57.157 11.4431 57.8862 11.7532C58.6168 12.0633 59.0693 12.7766 59.0387 13.5709C58.9516 15.7888 58.3937 18.9919 56.223 21.6497C53.6901 24.7521 49.6302 26.3529 44.1578 26.4094H33.1717V26.4078ZM32.5832 23.6156C32.4288 23.9058 32.545 24.1579 32.6031 24.2526C32.6612 24.3488 32.8339 24.5749 33.1717 24.5749H44.1486C55.1377 24.4634 57.047 17.5866 57.2075 13.4991C57.2075 13.4747 57.209 13.4563 57.1708 13.4395C57.1341 13.4243 57.1234 13.4349 57.1066 13.4517C52.5208 18.2282 44.0508 18.0174 43.3064 17.9899C36.7731 18.248 33.8703 21.19 32.5863 23.6141L32.5832 23.6156Z" fill="url(#paint1_linear_4647_63761)" stroke="url(#paint2_linear_4647_63761)" stroke-width="1.24"></path><path d="M44.8243 86.5827H41.894C40.2095 86.5827 38.8398 85.2141 38.8398 83.5308V72.4826C38.8398 70.7993 40.2095 69.4307 41.894 69.4307H44.8243C46.5088 69.4307 47.8785 70.7993 47.8785 72.4826V83.5308C47.8785 85.2141 46.5088 86.5827 44.8243 86.5827ZM41.894 71.2636C41.2214 71.2636 40.6742 71.8105 40.6742 72.4826V83.5308C40.6742 84.2029 41.2214 84.7498 41.894 84.7498H44.8243C45.4969 84.7498 46.0441 84.2029 46.0441 83.5308V72.4826C46.0441 71.8105 45.4969 71.2636 44.8243 71.2636H41.894Z" fill="url(#paint3_linear_4647_63761)" stroke="url(#paint4_linear_4647_63761)" stroke-width="1.24"></path><path d="M63.1954 86.5827H60.2651C58.5806 86.5827 57.2109 85.2141 57.2109 83.5308V72.4826C57.2109 70.7993 58.5806 69.4307 60.2651 69.4307H63.1954C64.8799 69.4307 66.2496 70.7993 66.2496 72.4826V83.5308C66.2496 85.2141 64.8799 86.5827 63.1954 86.5827ZM60.2651 71.2636C59.5925 71.2636 59.0453 71.8105 59.0453 72.4826V83.5308C59.0453 84.2029 59.5925 84.7498 60.2651 84.7498H63.1954C63.868 84.7498 64.4152 84.2029 64.4152 83.5308V72.4826C64.4152 71.8105 63.868 71.2636 63.1954 71.2636H60.2651Z" fill="url(#paint5_linear_4647_63761)" stroke="url(#paint6_linear_4647_63761)" stroke-width="1.24"></path><path d="M81.5704 86.5827H78.6401C76.9556 86.5827 75.5859 85.2141 75.5859 83.5308V72.4826C75.5859 70.7993 76.9556 69.4307 78.6401 69.4307H81.5704C83.2549 69.4307 84.6246 70.7993 84.6246 72.4826V83.5308C84.6246 85.2141 83.2549 86.5827 81.5704 86.5827ZM78.6401 71.2636C77.9675 71.2636 77.4203 71.8105 77.4203 72.4826V83.5308C77.4203 84.2029 77.9675 84.7498 78.6401 84.7498H81.5704C82.243 84.7498 82.7902 84.2029 82.7902 83.5308V72.4826C82.7902 71.8105 82.243 71.2636 81.5704 71.2636H78.6401Z" fill="url(#paint7_linear_4647_63761)" stroke="url(#paint8_linear_4647_63761)" stroke-width="1.24"></path><circle opacity="0.5" cx="62" cy="55" r="62" fill="url(#paint9_radial_4647_63761)"></circle></g></g><defs><linearGradient id="paint0_linear_4647_63761" x1="62.4073" y1="11.8113" x2="62.4073" y2="104.672" gradientUnits="userSpaceOnUse"><stop stop-color="white"></stop><stop offset="0.221837" stop-color="#EDEDED"></stop><stop offset="0.466692" stop-opacity="0.5"></stop><stop offset="1" stop-opacity="0"></stop></linearGradient><linearGradient id="paint1_linear_4647_63761" x1="30.6719" y1="11.6001" x2="59.9239" y2="13.8196" gradientUnits="userSpaceOnUse"><stop offset="0.00270832" stop-color="#FFC67E"></stop><stop offset="0.956566" stop-color="#FFDFC2"></stop></linearGradient><linearGradient id="paint2_linear_4647_63761" x1="30.6719" y1="11.6001" x2="59.9239" y2="13.8196" gradientUnits="userSpaceOnUse"><stop offset="0.00270832" stop-color="#FFC67E"></stop><stop offset="0.956566" stop-color="#FFDFC2"></stop></linearGradient><linearGradient id="paint3_linear_4647_63761" x1="38.8398" y1="69.4307" x2="48.2096" y2="69.6262" gradientUnits="userSpaceOnUse"><stop offset="0.00270832" stop-color="#FFC67E"></stop><stop offset="0.956566" stop-color="#FFDFC2"></stop></linearGradient><linearGradient id="paint4_linear_4647_63761" x1="38.8398" y1="69.4307" x2="48.2096" y2="69.6262" gradientUnits="userSpaceOnUse"><stop offset="0.00270832" stop-color="#FFC67E"></stop><stop offset="0.956566" stop-color="#FFDFC2"></stop></linearGradient><linearGradient id="paint5_linear_4647_63761" x1="57.2109" y1="69.4307" x2="66.5807" y2="69.6262" gradientUnits="userSpaceOnUse"><stop offset="0.00270832" stop-color="#FFC67E"></stop><stop offset="0.956566" stop-color="#FFDFC2"></stop></linearGradient><linearGradient id="paint6_linear_4647_63761" x1="57.2109" y1="69.4307" x2="66.5807" y2="69.6262" gradientUnits="userSpaceOnUse"><stop offset="0.00270832" stop-color="#FFC67E"></stop><stop offset="0.956566" stop-color="#FFDFC2"></stop></linearGradient><linearGradient id="paint7_linear_4647_63761" x1="75.5859" y1="69.4307" x2="84.9557" y2="69.6262" gradientUnits="userSpaceOnUse"><stop offset="0.00270832" stop-color="#FFC67E"></stop><stop offset="0.956566" stop-color="#FFDFC2"></stop></linearGradient><linearGradient id="paint8_linear_4647_63761" x1="75.5859" y1="69.4307" x2="84.9557" y2="69.6262" gradientUnits="userSpaceOnUse"><stop offset="0.00270832" stop-color="#FFC67E"></stop><stop offset="0.956566" stop-color="#FFDFC2"></stop></linearGradient><radialGradient id="paint9_radial_4647_63761" cx="0" cy="0" r="1" gradientUnits="userSpaceOnUse" gradientTransform="translate(62 55) rotate(90) scale(62)"><stop stop-color="#FFDBA6" stop-opacity="0.3"></stop><stop offset="1" stop-color="#FFE6C0" stop-opacity="0"></stop></radialGradient></defs></svg>